<svg width="1752" height="559" viewBox="0 0 1752 559" fill="none" xmlns="http://www.w3.org/2000/svg">
<path d="M590.687 502.276C590.687 504.986 588.516 507.188 585.844 507.188C583.171 507.188 581 504.986 581 502.276C581 499.566 583.171 497.365 585.844 497.365C588.516 497.365 590.687 499.56 590.687 502.276Z" stroke="#7183A6" stroke-opacity="0.3" stroke-width="2" stroke-miterlimit="10" stroke-linecap="round" stroke-linejoin="round"/>
<path d="M637.68 544.873C640.355 544.873 642.524 542.674 642.524 539.962C642.524 537.249 640.355 535.05 637.68 535.05C635.005 535.05 632.836 537.249 632.836 539.962C632.836 542.674 635.005 544.873 637.68 544.873Z" stroke="#7183A6" stroke-opacity="0.3" stroke-width="2" stroke-miterlimit="10" stroke-linecap="round" stroke-linejoin="round"/>
<path d="M619.444 529.864C625.149 529.864 629.774 525.175 629.774 519.389C629.774 513.604 625.149 508.914 619.444 508.914C613.739 508.914 609.114 513.604 609.114 519.389C609.114 525.175 613.739 529.864 619.444 529.864Z" stroke="#7183A6" stroke-opacity="0.3" stroke-width="2" stroke-miterlimit="10" stroke-linecap="round" stroke-linejoin="round"/>
<path d="M637.443 519.389L633.998 525.496L632.171 532.294L625.472 534.141L619.445 537.64L613.417 534.141L606.713 532.294L604.891 525.496L601.44 519.389L604.891 513.277L606.713 506.479L613.417 504.632L619.445 501.133L625.472 504.632L632.171 506.479L633.998 513.277L637.443 519.389Z" stroke="#7183A6" stroke-opacity="0.3" stroke-width="2" stroke-miterlimit="10" stroke-linecap="round" stroke-linejoin="round"/>
<path d="M632.836 539.962C632.836 537.252 635.007 535.05 637.68 535.05C639.123 535.05 640.42 535.696 641.306 536.714C644.993 531.934 647.198 525.925 647.198 519.384C647.198 503.837 634.77 491.235 619.439 491.235C604.107 491.235 591.68 503.837 591.68 519.384C591.68 534.93 604.107 547.532 619.439 547.532C624.829 547.532 629.853 545.971 634.111 543.278C633.327 542.403 632.836 541.243 632.836 539.962Z" stroke="#7183A6" stroke-opacity="0.3" stroke-width="2" stroke-miterlimit="10" stroke-linecap="round" stroke-linejoin="round"/>
<path d="M619.444 481.298C606.492 481.298 595.068 487.947 588.319 498.062C589.734 498.92 590.687 500.486 590.687 502.282C590.687 504.992 588.516 507.193 585.844 507.193C585.184 507.193 584.558 507.056 583.988 506.816C582.63 510.755 581.885 514.981 581.885 519.389C581.885 540.425 598.705 557.481 619.45 557.481C640.195 557.481 657.015 540.425 657.015 519.389C657.015 498.354 640.189 481.298 619.444 481.298Z" stroke="#7183A6" stroke-opacity="0.3" stroke-width="2" stroke-miterlimit="10" stroke-linecap="round" stroke-linejoin="round"/>
<path d="M190.841 80.9869L167.535 72.9604C165.073 72.1145 163.758 69.4006 164.592 66.9033C165.426 64.406 168.103 63.0728 170.559 63.9188L193.865 71.9453C196.327 72.7912 197.642 75.5051 196.808 77.9956C195.974 80.4996 193.304 81.8396 190.841 80.9869Z" stroke="#7183A6" stroke-opacity="0.3" stroke-width="3" stroke-miterlimit="10"/>
<path d="M187.778 90.1368L164.472 82.1104C162.009 81.2644 160.694 78.5505 161.529 76.06C162.363 73.5627 165.039 72.2295 167.502 73.0754L190.808 81.0952C193.271 81.9412 194.585 84.655 193.751 87.1523C192.91 89.6496 190.241 90.9828 187.778 90.1368Z" stroke="#7183A6" stroke-opacity="0.3" stroke-width="3" stroke-miterlimit="10"/>
<path d="M167.061 39.2368C167.088 39.318 167.108 39.3924 167.135 39.4737C167.655 41.1588 170.726 51.8382 169.444 63.6885L194.445 72.0534C200.372 61.7597 209.108 55.0394 210.517 53.9971C210.583 53.9498 210.65 53.9024 210.71 53.855C211.391 53.361 212.052 52.8331 212.692 52.2714C216.457 48.9755 219.42 44.6374 221.088 39.5075C226.007 24.402 217.918 8.11209 203.022 3.12429C188.125 -1.86351 172.06 6.33896 167.142 21.4445C165.466 26.5812 165.299 31.8532 166.394 36.7733C166.581 37.599 166.801 38.4246 167.061 39.2368Z" stroke="#7183A6" stroke-opacity="0.3" stroke-width="3" stroke-miterlimit="10"/>
<path d="M165.747 82.6653C165.467 87.6734 168.51 92.4446 173.435 94.096C178.294 95.7202 183.467 93.7914 186.216 89.7105L165.747 82.6653Z" stroke="#7183A6" stroke-opacity="0.3" stroke-width="3" stroke-miterlimit="10"/>
<path d="M177.273 66.1724L184.701 43.3449C185.435 41.098 184.227 38.6752 182.011 37.9308C179.795 37.1863 177.406 38.4113 176.672 40.6582C175.938 42.905 177.146 45.3279 179.362 46.0723L188.278 49.0569" stroke="#7183A6" stroke-opacity="0.3" stroke-width="3" stroke-miterlimit="10"/>
<path d="M187.07 69.4548L194.499 46.6273C195.233 44.3804 197.622 43.1622 199.838 43.8999C202.054 44.6444 203.255 47.0672 202.528 49.3141C201.793 51.561 199.404 52.7792 197.188 52.0415L188.272 49.0569" stroke="#7183A6" stroke-opacity="0.3" stroke-width="3" stroke-miterlimit="10"/>
<path d="M226.368 47.3717L233.896 49.896" stroke="#7183A6" stroke-opacity="0.3" stroke-width="3" stroke-miterlimit="10" stroke-linecap="round"/>
<path d="M229.818 37.7548L237.66 36.5569" stroke="#7183A6" stroke-opacity="0.3" stroke-width="3" stroke-miterlimit="10" stroke-linecap="round"/>
<path d="M221.102 55.6216L226.694 61.32" stroke="#7183A6" stroke-opacity="0.3" stroke-width="3" stroke-miterlimit="10" stroke-linecap="round"/>
<path d="M156.442 23.969L148.914 21.4514" stroke="#7183A6" stroke-opacity="0.3" stroke-width="3" stroke-miterlimit="10" stroke-linecap="round"/>
<path d="M159.319 14.1558L153.727 8.4574" stroke="#7183A6" stroke-opacity="0.3" stroke-width="3" stroke-miterlimit="10" stroke-linecap="round"/>
<path d="M155.835 33.7754L148 34.9733" stroke="#7183A6" stroke-opacity="0.3" stroke-width="3" stroke-miterlimit="10" stroke-linecap="round"/>
<path d="M1577.84 501.807L1554.54 493.781C1552.07 492.935 1550.76 490.221 1551.59 487.723C1552.43 485.226 1555.1 483.893 1557.56 484.739L1580.86 492.765C1583.33 493.611 1584.64 496.325 1583.81 498.816C1582.97 501.32 1580.3 502.66 1577.84 501.807Z" stroke="#7183A6" stroke-opacity="0.3" stroke-width="3" stroke-miterlimit="10"/>
<path d="M1574.78 510.957L1551.47 502.931C1549.01 502.085 1547.69 499.371 1548.53 496.88C1549.36 494.383 1552.04 493.05 1554.5 493.896L1577.81 501.915C1580.27 502.761 1581.59 505.475 1580.75 507.972C1579.91 510.47 1577.24 511.803 1574.78 510.957Z" stroke="#7183A6" stroke-opacity="0.3" stroke-width="3" stroke-miterlimit="10"/>
<path d="M1554.06 460.057C1554.09 460.138 1554.11 460.213 1554.13 460.294C1554.66 461.979 1557.73 472.658 1556.44 484.509L1581.45 492.873C1587.37 482.58 1596.11 475.859 1597.52 474.817C1597.58 474.77 1597.65 474.722 1597.71 474.675C1598.39 474.181 1599.05 473.653 1599.69 473.091C1603.46 469.796 1606.42 465.457 1608.09 460.328C1613.01 445.222 1604.92 428.932 1590.02 423.944C1575.12 418.957 1559.06 427.159 1554.14 442.265C1552.47 447.401 1552.3 452.673 1553.39 457.593C1553.58 458.419 1553.8 459.245 1554.06 460.057Z" stroke="#7183A6" stroke-opacity="0.3" stroke-width="3" stroke-miterlimit="10"/>
<path d="M1552.75 503.485C1552.47 508.494 1555.51 513.265 1560.44 514.916C1565.29 516.54 1570.47 514.612 1573.22 510.531L1552.75 503.485Z" stroke="#7183A6" stroke-opacity="0.3" stroke-width="3" stroke-miterlimit="10"/>
<path d="M1564.27 486.993L1571.7 464.165C1572.44 461.918 1571.23 459.495 1569.01 458.751C1566.8 458.007 1564.41 459.231 1563.67 461.478C1562.94 463.725 1564.15 466.148 1566.36 466.893L1575.28 469.877" stroke="#7183A6" stroke-opacity="0.3" stroke-width="3" stroke-miterlimit="10"/>
<path d="M1574.07 490.275L1581.5 467.447C1582.23 465.201 1584.62 463.982 1586.84 464.72C1589.05 465.465 1590.26 467.887 1589.53 470.134C1588.79 472.381 1586.4 473.599 1584.19 472.862L1575.27 469.877" stroke="#7183A6" stroke-opacity="0.3" stroke-width="3" stroke-miterlimit="10"/>
<path d="M1613.37 468.192L1620.9 470.716" stroke="#7183A6" stroke-opacity="0.3" stroke-width="3" stroke-miterlimit="10" stroke-linecap="round"/>
<path d="M1616.82 458.575L1624.66 457.377" stroke="#7183A6" stroke-opacity="0.3" stroke-width="3" stroke-miterlimit="10" stroke-linecap="round"/>
<path d="M1608.1 476.442L1613.69 482.14" stroke="#7183A6" stroke-opacity="0.3" stroke-width="3" stroke-miterlimit="10" stroke-linecap="round"/>
<path d="M1543.44 444.789L1535.91 442.272" stroke="#7183A6" stroke-opacity="0.3" stroke-width="3" stroke-miterlimit="10" stroke-linecap="round"/>
<path d="M1546.32 434.976L1540.73 429.278" stroke="#7183A6" stroke-opacity="0.3" stroke-width="3" stroke-miterlimit="10" stroke-linecap="round"/>
<path d="M1542.84 454.596L1535 455.793" stroke="#7183A6" stroke-opacity="0.3" stroke-width="3" stroke-miterlimit="10" stroke-linecap="round"/>
<path d="M77.9929 262.855L8.78841 241.892C3.75514 240.369 0.898255 234.998 2.40002 229.894L16.221 182.96C17.7227 177.856 23.02 174.959 28.0532 176.482L97.2578 197.445C102.291 198.968 105.148 204.339 103.646 209.443L89.8252 256.377C88.3176 261.475 83.0203 264.378 77.9929 262.855Z" stroke="#7183A6" stroke-opacity="0.3" stroke-width="4" stroke-miterlimit="10" stroke-linecap="round"/>
<path d="M4.03076 224.344L91.4559 250.827" stroke="#7183A6" stroke-opacity="0.3" stroke-width="4" stroke-miterlimit="10" stroke-linecap="round"/>
<path d="M47.9578 245.277C47.5823 246.55 46.2566 247.276 45.0012 246.895C43.7458 246.514 43.0301 245.17 43.4056 243.897C43.781 242.624 45.1068 241.898 46.3622 242.279C47.6175 242.66 48.3332 244.004 47.9578 245.277Z" fill="#4D2C5E"/>
<path d="M43.8848 244.038C44.1647 243.089 45.1048 242.532 46.0322 242.712L46.2168 242.758C47.1426 243.039 47.7046 243.991 47.5244 244.945L47.4785 245.136C47.1986 246.085 46.2585 246.643 45.3311 246.463L45.1465 246.417C44.2209 246.136 43.6591 245.183 43.8389 244.229L43.8848 244.038Z" stroke="#7183A6" stroke-opacity="0.3"/>
<path d="M53.1983 255.352L33.5977 249.415L30.9567 258.381L50.5574 264.318L53.1983 255.352Z" stroke="#7183A6" stroke-opacity="0.3" stroke-width="4" stroke-miterlimit="10" stroke-linecap="round"/>
<path d="M23.689 256.692L57.5257 266.942" stroke="#7183A6" stroke-opacity="0.3" stroke-width="4" stroke-miterlimit="10" stroke-linecap="round"/>
<path d="M1637.99 94.5271L1568.79 73.5644C1563.76 72.0416 1560.9 66.67 1562.4 61.5662L1576.22 14.6321C1577.72 9.52828 1583.02 6.63134 1588.05 8.15417L1657.26 29.1169C1662.29 30.6397 1665.15 36.0112 1663.65 41.1151L1649.83 88.0491C1648.32 93.147 1643.02 96.0499 1637.99 94.5271Z" stroke="#7183A6" stroke-opacity="0.3" stroke-width="4" stroke-miterlimit="10" stroke-linecap="round"/>
<path d="M1564.03 56.0163L1651.46 82.4992" stroke="#7183A6" stroke-opacity="0.3" stroke-width="4" stroke-miterlimit="10" stroke-linecap="round"/>
<path d="M1607.96 76.9492C1607.58 78.2222 1606.26 78.9479 1605 78.5672C1603.75 78.1865 1603.03 76.8421 1603.41 75.5692C1603.78 74.2962 1605.11 73.5704 1606.36 73.9512C1607.62 74.3319 1608.33 75.6762 1607.96 76.9492Z" fill="#4D2C5E"/>
<path d="M1603.88 75.7102C1604.16 74.7614 1605.1 74.2039 1606.03 74.384L1606.22 74.4299C1607.14 74.7107 1607.7 75.6633 1607.52 76.6174L1607.48 76.8079C1607.2 77.7568 1606.26 78.3151 1605.33 78.135L1605.15 78.0891C1604.22 77.8084 1603.66 76.8555 1603.84 75.9016L1603.88 75.7102Z" stroke="#7183A6" stroke-opacity="0.3"/>
<path d="M1613.2 87.0238L1593.6 81.0873L1590.96 90.0532L1610.56 95.9898L1613.2 87.0238Z" stroke="#7183A6" stroke-opacity="0.3" stroke-width="4" stroke-miterlimit="10" stroke-linecap="round"/>
<path d="M1583.69 88.3645L1617.53 98.6138" stroke="#7183A6" stroke-opacity="0.3" stroke-width="4" stroke-miterlimit="10" stroke-linecap="round"/>
<path d="M613.28 82.619C634.974 82.619 652.56 74.166 652.56 63.7387C652.56 53.3115 634.974 44.8585 613.28 44.8585C591.586 44.8585 574 53.3115 574 63.7387C574 74.166 591.586 82.619 613.28 82.619Z" stroke="#7183A6" stroke-opacity="0.3" stroke-width="3" stroke-miterlimit="10" stroke-linecap="round" stroke-linejoin="round"/>
<path d="M629.165 73.5803C640.446 54.7918 642.471 35.1652 633.688 29.743C624.905 24.3208 608.64 35.1563 597.36 53.9448C586.079 72.7332 584.054 92.3599 592.837 97.782C601.62 103.204 617.884 92.3687 629.165 73.5803Z" stroke="#7183A6" stroke-opacity="0.3" stroke-width="3" stroke-miterlimit="10" stroke-linecap="round" stroke-linejoin="round"/>
<path d="M633.68 97.7735C642.463 92.3513 640.438 72.7247 629.157 53.9362C617.876 35.1477 601.612 24.3123 592.829 29.7344C584.046 35.1566 586.071 54.7833 597.352 73.5717C608.633 92.3602 624.897 103.196 633.68 97.7735Z" stroke="#7183A6" stroke-opacity="0.3" stroke-width="3" stroke-miterlimit="10" stroke-linecap="round" stroke-linejoin="round"/>
<path d="M613.28 68.7367C616.002 68.7367 618.209 66.499 618.209 63.7388C618.209 60.9785 616.002 58.7408 613.28 58.7408C610.558 58.7408 608.351 60.9785 608.351 63.7388C608.351 66.499 610.558 68.7367 613.28 68.7367Z" stroke="#7183A6" stroke-opacity="0.3" stroke-width="3" stroke-miterlimit="10" stroke-linecap="round" stroke-linejoin="round"/>
<path d="M92.2902 520.482L59.8556 528.074L58.3972 521.664C58.0622 520.178 58.9694 518.699 60.4348 518.352L87.5659 511.998C89.0313 511.658 90.4897 512.578 90.8317 514.064L92.2902 520.482Z" stroke="#7183A6" stroke-opacity="0.3" stroke-width="3" stroke-miterlimit="10" stroke-linecap="round"/>
<path d="M81.6291 486.006C95.9255 474.318 98.1704 453.09 86.6434 438.593C75.1163 424.096 54.1822 421.82 39.8858 433.508C25.5894 445.197 23.3446 466.425 34.8716 480.922C46.3987 495.419 67.3327 497.695 81.6291 486.006Z" stroke="#7183A6" stroke-opacity="0.3" stroke-width="3" stroke-miterlimit="10"/>
<path d="M76.2333 489.588L45.2223 429.937L41.3495 422.698C21.1337 433.503 13.3879 458.878 24.0436 479.377C34.6993 499.876 59.7229 507.731 79.9387 496.926L76.1496 489.637" stroke="#7183A6" stroke-opacity="0.3" stroke-width="3" stroke-miterlimit="10" stroke-linecap="round" stroke-linejoin="round"/>
<path d="M52.0569 443.008C62.2095 437.58 68.9142 430.245 67.0322 426.626C65.1503 423.006 55.3943 424.472 45.2418 429.9C35.0892 435.328 28.3845 442.663 30.2665 446.282C32.1484 449.902 41.9044 448.436 52.0569 443.008Z" stroke="#7183A6" stroke-opacity="0.3" stroke-width="3" stroke-miterlimit="10"/>
<path d="M54.4404 492.864C61.607 494.265 69.2761 493.31 76.2333 489.588C83.1905 485.866 88.3055 479.993 91.2154 473.207C84.0488 471.806 76.3799 472.761 69.4226 476.483C62.4584 480.205 57.3503 486.078 54.4404 492.864Z" stroke="#7183A6" stroke-opacity="0.3" stroke-width="3" stroke-miterlimit="10"/>
<path d="M76.2589 489.551C84.3795 485.21 84.0194 468.336 75.4545 451.864C66.8895 435.391 53.363 425.557 45.2424 429.899C37.1217 434.24 37.4819 451.114 46.0468 467.586C54.6118 484.059 68.1382 493.893 76.2589 489.551Z" stroke="#7183A6" stroke-opacity="0.3" stroke-width="3" stroke-miterlimit="10"/>
<path d="M31.3149 475.485L90.1408 444.039" stroke="#7183A6" stroke-opacity="0.3" stroke-width="3" stroke-miterlimit="10"/>
<path d="M70.3857 500.598L73.8189 515.118" stroke="#7183A6" stroke-opacity="0.3" stroke-width="3" stroke-miterlimit="10"/>
<path d="M55.9619 529.426L97.3076 519.371" stroke="#7183A6" stroke-opacity="0.3" stroke-width="3" stroke-miterlimit="10" stroke-linecap="round"/>
<path d="M1736.29 343.027L1703.86 350.62L1702.4 344.209C1702.06 342.723 1702.97 341.244 1704.43 340.897L1731.57 334.543C1733.03 334.204 1734.49 335.123 1734.83 336.609L1736.29 343.027Z" stroke="#7183A6" stroke-opacity="0.3" stroke-width="3" stroke-miterlimit="10" stroke-linecap="round"/>
<path d="M1725.63 308.552C1739.93 296.863 1742.17 275.635 1730.64 261.139C1719.12 246.642 1698.18 244.365 1683.89 256.054C1669.59 267.743 1667.34 288.97 1678.87 303.467C1690.4 317.964 1711.33 320.241 1725.63 308.552Z" stroke="#7183A6" stroke-opacity="0.3" stroke-width="3" stroke-miterlimit="10"/>
<path d="M1720.23 312.133L1689.22 252.482L1685.35 245.244C1665.13 256.049 1657.39 281.423 1668.04 301.923C1678.7 322.422 1703.72 330.276 1723.94 319.471L1720.15 312.183" stroke="#7183A6" stroke-opacity="0.3" stroke-width="3" stroke-miterlimit="10" stroke-linecap="round" stroke-linejoin="round"/>
<path d="M1696.06 265.553C1706.21 260.125 1712.91 252.791 1711.03 249.171C1709.15 245.552 1699.39 247.018 1689.24 252.446C1679.09 257.874 1672.38 265.208 1674.27 268.828C1676.15 272.447 1685.9 270.981 1696.06 265.553Z" stroke="#7183A6" stroke-opacity="0.3" stroke-width="3" stroke-miterlimit="10"/>
<path d="M1698.44 315.41C1705.61 316.811 1713.28 315.855 1720.23 312.133C1727.19 308.411 1732.31 302.538 1735.22 295.752C1728.05 294.351 1720.38 295.307 1713.42 299.029C1706.46 302.751 1701.35 308.624 1698.44 315.41Z" stroke="#7183A6" stroke-opacity="0.3" stroke-width="3" stroke-miterlimit="10"/>
<path d="M1720.26 312.097C1728.38 307.755 1728.02 290.882 1719.45 274.409C1710.89 257.937 1697.36 248.102 1689.24 252.444C1681.12 256.786 1681.48 273.659 1690.05 290.132C1698.61 306.604 1712.14 316.438 1720.26 312.097Z" stroke="#7183A6" stroke-opacity="0.3" stroke-width="3" stroke-miterlimit="10"/>
<path d="M1675.31 298.031L1734.14 266.585" stroke="#7183A6" stroke-opacity="0.3" stroke-width="3" stroke-miterlimit="10"/>
<path d="M1714.39 323.144L1717.82 337.664" stroke="#7183A6" stroke-opacity="0.3" stroke-width="3" stroke-miterlimit="10"/>
<path d="M1699.96 351.971L1741.31 341.916" stroke="#7183A6" stroke-opacity="0.3" stroke-width="3" stroke-miterlimit="10" stroke-linecap="round"/>
<path d="M669.729 409.326L687.034 391.778L639.084 343.156L621.779 360.703L669.729 409.326Z" stroke="#7183A6" stroke-opacity="0.3" stroke-width="3" stroke-miterlimit="10" stroke-linecap="round" stroke-linejoin="round"/>
<path d="M691.712 414.073L687.028 391.775L669.723 409.323L691.712 414.073Z" stroke="#7183A6" stroke-opacity="0.3" stroke-width="3" stroke-miterlimit="10" stroke-linecap="round" stroke-linejoin="round"/>
<path d="M689.527 403.669L681.445 411.856" stroke="#7183A6" stroke-opacity="0.3" stroke-width="3" stroke-miterlimit="10" stroke-linecap="round" stroke-linejoin="round"/>
<path d="M616.68 347.325L625.881 337.995C628.12 335.725 631.746 335.725 633.985 337.995L639.073 343.155L621.768 360.703L616.68 355.543C614.44 353.273 614.44 349.588 616.68 347.325Z" stroke="#7183A6" stroke-opacity="0.3" stroke-width="3" stroke-miterlimit="10" stroke-linecap="round" stroke-linejoin="round"/>
<path d="M643.75 347.889L626.444 365.445" stroke="#7183A6" stroke-opacity="0.3" stroke-width="3" stroke-miterlimit="10" stroke-linecap="round" stroke-linejoin="round"/>
<path d="M678.376 400.549L635.097 356.671" stroke="#7183A6" stroke-opacity="0.3" stroke-width="3" stroke-miterlimit="10" stroke-linecap="round" stroke-linejoin="round"/>
</svg>
