<svg width="42" height="42" viewBox="0 0 42 42" fill="none" xmlns="http://www.w3.org/2000/svg">
<path d="M8.18758 31.6251C9.95841 30.2709 11.9376 29.2032 14.1251 28.422C16.3126 27.6407 18.6042 27.2501 21.0001 27.2501C23.3959 27.2501 25.6876 27.6407 27.8751 28.422C30.0626 29.2032 32.0417 30.2709 33.8126 31.6251C35.0279 30.2015 35.974 28.5869 36.6511 26.7813C37.3282 24.9758 37.6667 23.0487 37.6667 21.0001C37.6667 16.382 36.0435 12.4497 32.797 9.20321C29.5504 5.95668 25.6181 4.33341 21.0001 4.33341C16.382 4.33341 12.4497 5.95668 9.20321 9.20321C5.95668 12.4497 4.33341 16.382 4.33341 21.0001C4.33341 23.0487 4.67196 24.9758 5.34904 26.7813C6.02612 28.5869 6.9723 30.2015 8.18758 31.6251ZM21.0001 23.0834C18.9515 23.0834 17.224 22.3803 15.8178 20.974C14.4115 19.5678 13.7084 17.8404 13.7084 15.7917C13.7084 13.7431 14.4115 12.0157 15.8178 10.6095C17.224 9.20321 18.9515 8.50008 21.0001 8.50008C23.0487 8.50008 24.7761 9.20321 26.1824 10.6095C27.5886 12.0157 28.2917 13.7431 28.2917 15.7917C28.2917 17.8404 27.5886 19.5678 26.1824 20.974C24.7761 22.3803 23.0487 23.0834 21.0001 23.0834ZM21.0001 41.8334C18.1181 41.8334 15.4098 41.2865 12.8751 40.1928C10.3404 39.099 8.1355 37.6147 6.2605 35.7397C4.3855 33.8647 2.90112 31.6598 1.80737 29.1251C0.713623 26.5904 0.166748 23.882 0.166748 21.0001C0.166748 18.1181 0.713623 15.4098 1.80737 12.8751C2.90112 10.3404 4.3855 8.1355 6.2605 6.2605C8.1355 4.3855 10.3404 2.90112 12.8751 1.80737C15.4098 0.713623 18.1181 0.166748 21.0001 0.166748C23.882 0.166748 26.5904 0.713623 29.1251 1.80737C31.6598 2.90112 33.8647 4.3855 35.7397 6.2605C37.6147 8.1355 39.099 10.3404 40.1928 12.8751C41.2865 15.4098 41.8334 18.1181 41.8334 21.0001C41.8334 23.882 41.2865 26.5904 40.1928 29.1251C39.099 31.6598 37.6147 33.8647 35.7397 35.7397C33.8647 37.6147 31.6598 39.099 29.1251 40.1928C26.5904 41.2865 23.882 41.8334 21.0001 41.8334Z" fill="#2E3B46"/>
</svg>
