<svg width="516" height="617" viewBox="0 0 516 617" fill="none" xmlns="http://www.w3.org/2000/svg">
<path d="M257.723 616.644C400.06 616.644 515.446 609.527 515.446 600.747C515.446 591.968 400.06 584.851 257.723 584.851C115.387 584.851 0 591.968 0 600.747C0 609.527 115.387 616.644 257.723 616.644Z" fill="#CED3E6"/>
<path d="M241.655 158.076L267.687 254.607L258.399 243.763C261.833 245.622 265.819 247.047 270.214 248.04C274.609 249.05 279.413 249.627 284.431 249.88C289.449 250.151 294.68 250.097 300.036 249.88C305.392 249.645 310.855 249.248 316.406 248.761H316.442C324.627 248.058 331.834 254.21 332.527 262.51C333.186 270.431 327.652 277.432 320.054 278.695C314.325 279.615 308.506 280.499 302.545 281.203C296.567 281.907 290.446 282.43 284.111 282.574C277.776 282.719 271.211 282.466 264.413 281.474C257.634 280.481 250.606 278.677 243.737 275.682C239.342 273.751 236.21 270.106 234.787 265.83L234.449 264.82L203.221 169.895C199.716 159.231 205.392 147.683 215.926 144.129C226.442 140.574 237.83 146.33 241.335 157.012C241.442 157.337 241.566 157.733 241.655 158.076Z" fill="#EA9B7A"/>
<path d="M251.673 508.006C251.281 508.006 250.89 507.934 250.498 507.789L114.128 457.936C112.349 457.286 111.423 455.284 112.064 453.479C112.705 451.675 114.68 450.719 116.459 451.386L252.829 501.24C254.609 501.889 255.552 503.892 254.894 505.696C254.413 507.122 253.079 508.006 251.673 508.006Z" fill="#C77E2E"/>
<path d="M109.627 508.006C108.221 508.006 106.904 507.122 106.388 505.696C105.748 503.892 106.673 501.889 108.452 501.221L246.442 450.538C248.221 449.889 250.196 450.827 250.855 452.631C251.495 454.435 250.57 456.438 248.791 457.106L110.801 507.789C110.41 507.934 110.018 508.006 109.627 508.006Z" fill="#C77E2E"/>
<path d="M263.808 597.103C260.908 597.103 258.381 594.92 257.972 591.925L233.345 405.412H130.267L106.014 591.925C105.587 595.19 102.633 597.5 99.4127 597.067C96.1921 596.634 93.9145 593.639 94.3415 590.373L119.27 398.7C119.662 395.723 122.153 393.504 125.107 393.504H238.506C241.459 393.504 243.95 395.723 244.342 398.682L269.662 590.355C270.089 593.621 267.83 596.634 264.609 597.067C264.324 597.085 264.075 597.103 263.808 597.103Z" fill="#FAAF3A"/>
<path d="M205.659 399.458H132.011C108.683 399.458 83.7011 386.503 80.1067 363.137C75.3202 331.868 74.1281 301.61 75.4626 273.823C76.9751 242.41 91.7794 213.18 116.121 193.693C116.121 193.693 130.836 258.703 112.331 348.432C119.413 382.497 205.659 399.458 205.659 399.458Z" fill="#FAAF3A"/>
<path d="M190.303 18.1874C190.303 18.1874 181.548 -3.21183 158.363 0.829844C142.171 3.64458 135.267 24.1055 136.21 55.7172C137.598 101.709 122.26 129.424 122.26 129.424L142.616 134.115C142.633 134.097 194.466 55.2481 190.303 18.1874Z" fill="#39393B"/>
<path d="M376.032 517.189H343.132C343.132 517.189 335.516 480.165 332.972 459.415C330.41 438.647 329.093 389.444 329.093 389.444C329.093 389.444 302.883 398.086 248.007 394.821C126.423 387.621 172.527 297.045 172.527 297.045C176.637 302.8 201.797 298.813 219.004 301.555C271.797 306.698 317.563 327.7 345.036 339.717C351.655 342.604 357.527 345.671 362.687 348.901C369.306 353.033 373.452 365.609 375.961 382.118C383.452 431.755 376.032 517.189 376.032 517.189Z" fill="#39393B"/>
<path d="M347.225 499.345C346.673 499.345 346.193 498.948 346.068 498.389C341.317 474.572 339.734 444.927 338.452 421.11C337.385 401.352 336.388 382.696 333.879 380.458C331.851 378.636 323.435 380.061 312.794 381.848C291.602 385.42 259.573 390.797 224.271 382.479C205.036 377.932 190.89 368.46 182.242 354.314C167.313 329.919 174.128 299.661 174.199 299.354C174.342 298.705 174.982 298.308 175.623 298.47C176.263 298.614 176.655 299.264 176.495 299.914C176.423 300.202 169.858 329.522 184.27 353.069C192.58 366.655 206.228 375.767 224.822 380.152C259.68 388.379 291.424 383.038 312.438 379.502C325.018 377.391 332.616 376.11 335.481 378.672C338.577 381.451 339.449 395.091 340.837 420.983C342.118 444.728 343.702 474.265 348.417 497.919C348.541 498.569 348.132 499.201 347.492 499.327C347.367 499.345 347.296 499.345 347.225 499.345Z" fill="#585859"/>
<path d="M376.655 499.976H376.637L340.054 499.182C339.395 499.164 338.879 498.623 338.897 497.955C338.915 497.288 339.449 496.765 340.107 496.783L376.691 497.576C377.349 497.595 377.865 498.136 377.847 498.803C377.829 499.453 377.296 499.976 376.655 499.976Z" fill="#585859"/>
<path d="M375.125 559.916H351.904L347.438 532.31L344.982 517.19H373.826L374.289 532.31L375.125 559.916Z" fill="#EA9B7A"/>
<path d="M375.125 559.916H351.904L348.577 539.365L347.438 532.31H374.289L374.52 539.617L375.125 559.916Z" fill="#FAAF3A"/>
<path d="M374.52 539.617L348.577 539.365L347.438 532.31H374.289L374.52 539.617Z" fill="#C77E2E"/>
<path d="M432.42 597.103H344.609C343.95 595.894 343.595 594.198 343.452 592.159C342.901 584.617 345.267 572.6 346.424 565.022C346.566 564.138 346.691 563.308 346.78 562.568C346.94 561.305 347.047 560.24 347.047 559.465C347.047 553.276 352.438 554.34 352.438 554.34C361.317 563.182 371.388 549.92 377.26 554.268C377.26 554.268 377.491 554.449 378.043 554.864C378.541 555.261 379.289 555.874 380.321 556.758C381.815 558.021 383.915 559.862 386.762 562.46C393.737 568.829 405.588 573.015 415.677 577.291C416.958 577.833 418.15 578.392 419.271 578.933C420.107 579.348 420.908 579.763 421.655 580.16C429.912 584.671 432.527 589.001 433.132 592.141C433.719 595.172 432.42 597.103 432.42 597.103Z" fill="#0875F7"/>
<path d="M421.673 580.178C419.413 582 414.378 585.663 410.338 585.663C410.16 585.663 409.983 585.663 409.805 585.645C406.958 585.411 396.495 580.196 387.972 575.451C383.096 572.726 378.63 570.056 375.427 567.909C370.178 564.39 369.253 563.055 369.057 562.117C368.292 558.598 374.022 556.163 378.043 554.882C378.541 555.278 379.289 555.892 380.321 556.776C375.338 558.147 371.228 560.313 371.424 561.558C371.922 562.604 377.118 566.61 389.538 573.52C399.022 578.789 408.007 583.029 410 583.209C412.705 583.426 416.673 580.936 419.271 578.969C420.125 579.366 420.926 579.781 421.673 580.178Z" fill="#084FC7"/>
<path d="M432.42 597.103H344.609C343.95 595.894 343.594 594.198 343.452 592.159H433.15C433.719 595.172 432.42 597.103 432.42 597.103Z" fill="#084FC7"/>
<path d="M353.559 597.103H350.943C353.541 594.089 355.979 589.452 355.658 582.848C355.231 574.043 350.036 568.125 346.406 565.022C346.548 564.138 346.673 563.308 346.762 562.568C350.658 565.581 357.224 572.203 357.74 582.74C358.078 589.055 356.032 593.765 353.559 597.103Z" fill="#084FC7"/>
<path d="M385.285 567.728C384.644 567.728 384.039 567.277 383.879 566.61C383.683 565.816 384.164 565.022 384.929 564.823L390.41 563.434C391.192 563.236 391.975 563.723 392.171 564.499C392.367 565.293 391.886 566.086 391.121 566.285L385.641 567.674C385.516 567.71 385.392 567.728 385.285 567.728Z" fill="white"/>
<path d="M379.84 563.109C379.2 563.109 378.595 562.658 378.434 561.991C378.239 561.197 378.719 560.403 379.484 560.205L384.965 558.815C385.748 558.617 386.531 559.104 386.726 559.88C386.922 560.674 386.442 561.468 385.676 561.648L380.196 563.037C380.071 563.091 379.947 563.109 379.84 563.109Z" fill="white"/>
<path d="M390.765 570.958C390.125 570.958 389.52 570.507 389.36 569.84C389.164 569.046 389.644 568.252 390.409 568.071L395.89 566.682C396.673 566.484 397.456 566.971 397.651 567.747C397.847 568.54 397.367 569.334 396.602 569.533L391.121 570.922C390.997 570.958 390.89 570.958 390.765 570.958Z" fill="white"/>
<path d="M396.246 574.08C395.587 574.08 395 573.629 394.84 572.961C394.644 572.167 395.125 571.373 395.89 571.175L401.37 569.785C402.153 569.587 402.936 570.074 403.132 570.85C403.328 571.644 402.847 572.438 402.082 572.618L396.602 574.007C396.495 574.062 396.37 574.08 396.246 574.08Z" fill="white"/>
<path d="M402.242 576.948C401.602 576.948 400.997 576.497 400.837 575.83C400.641 575.036 401.121 574.242 401.887 574.061L407.367 572.672C408.15 572.474 408.933 572.961 409.129 573.737C409.324 574.531 408.844 575.325 408.079 575.523L402.598 576.912C402.474 576.93 402.349 576.948 402.242 576.948Z" fill="white"/>
<path d="M408.719 579.402C408.079 579.402 407.474 578.951 407.314 578.284C407.118 577.49 407.598 576.696 408.364 576.497L413.844 575.108C414.627 574.91 415.41 575.397 415.606 576.173C415.801 576.967 415.321 577.76 414.556 577.941L409.075 579.33C408.951 579.384 408.844 579.402 408.719 579.402Z" fill="white"/>
<path d="M111.637 268.32C111.637 268.32 110.605 275.519 120.107 277.54L219.182 280.896C219.182 280.896 225.872 277.486 224.662 269.078C224.662 269.06 182.829 245.225 111.637 268.32Z" fill="#084FC7"/>
<path d="M220.534 301.538C169.11 330.226 112.954 307.131 112.954 307.131C115.694 299.535 117.74 290.964 119.217 283.17C120.925 274.094 121.886 266.083 122.331 261.879C144.199 260.67 197.829 258.342 218.844 263.394L219.004 271.929L220.534 301.538Z" fill="#EA9B7A"/>
<path d="M182.544 287.789C182.171 290.477 180.961 292.534 179.875 292.372C178.772 292.209 178.203 289.9 178.576 287.211C178.95 284.523 180.16 282.466 181.245 282.628C182.349 282.791 182.918 285.1 182.544 287.789Z" fill="#D96C63"/>
<path d="M218.986 271.929C197.082 270.576 154.004 270.106 119.199 283.152C120.907 274.076 121.868 266.065 122.313 261.861C144.181 260.652 197.812 258.324 218.826 263.376L218.986 271.929Z" fill="#D96C63"/>
<path d="M243.417 230.664C243.203 231.313 242.954 231.909 242.669 232.468C242.563 232.685 242.456 232.901 242.349 233.1C239.591 238.278 235.338 242.771 231.762 245.964C231.015 246.632 230.303 247.227 229.644 247.769C228.328 248.851 227.207 249.699 226.442 250.259C225.73 250.764 225.321 251.035 225.321 251.035C225.321 251.089 225.321 251.125 225.303 251.197C225.267 251.576 225.232 251.991 225.196 252.424C225.071 254.066 224.965 256.014 224.894 258.252C224.822 260.038 224.769 262.005 224.733 264.134C224.716 265.704 224.68 267.346 224.662 269.042C195.605 255.87 135.747 264.188 111.637 268.302C112.082 266.191 112.473 264.116 112.847 262.095C114.555 252.767 115.516 244.377 115.89 236.853C116.459 225.666 115.498 208.85 113.149 191.474C113.007 190.337 112.847 189.219 112.687 188.1C112.58 187.36 112.473 186.638 112.349 185.899C111.53 180.45 110.569 174.982 109.484 169.678C104.733 146.546 108.06 122.278 131.192 119.409C132.865 119.193 134.52 119.013 136.139 118.832C147.029 117.659 155.997 117.244 158.488 117.154C158.95 117.136 159.182 117.136 159.182 117.136L203.879 130.308L208.132 131.553C210.57 132.346 212.829 133.122 214.929 133.88C215.819 134.205 216.691 134.53 217.509 134.836C219.68 135.666 221.637 136.46 223.434 137.272C227.011 138.878 229.84 140.448 232.082 142.054C241.886 149.109 240.374 157.084 240.125 172.835C240.125 172.908 240.125 172.98 240.125 173.052C240.125 173.25 240.125 173.449 240.125 173.665C240.125 173.756 240.125 173.846 240.125 173.936C240.125 174.586 240.125 175.217 240.125 175.867C240.143 177.905 240.214 179.926 240.338 181.947C240.499 184.924 240.765 187.883 241.086 190.77C241.21 191.925 241.335 193.08 241.477 194.235C241.602 195.317 241.744 196.382 241.886 197.446C243.63 211.231 245.854 223.32 243.417 230.664Z" fill="#0875F7"/>
<path d="M240.107 173.052C240.107 173.25 240.107 173.449 240.107 173.665C240.107 173.756 240.107 173.846 240.107 173.936C240.107 174.586 240.107 175.217 240.107 175.867L230.712 181.839C230.427 182.019 230.107 182.073 229.787 182.019C229.431 181.965 229.111 181.749 228.897 181.424C228.506 180.792 228.701 179.98 229.306 179.583L239.271 173.25C239.52 173.088 239.822 173.034 240.107 173.052Z" fill="#084FC7"/>
<path d="M178.185 224.078C177.829 224.078 177.473 223.934 177.206 223.645C176.726 223.104 176.762 222.255 177.295 221.768L186.032 213.793C186.566 213.306 187.402 213.342 187.883 213.883C188.363 214.425 188.327 215.273 187.794 215.76L179.057 223.735C178.808 223.952 178.488 224.078 178.185 224.078Z" fill="#084FC7"/>
<path d="M241.851 197.446L235.872 202.913C235.623 203.148 235.303 203.256 235 203.256C234.644 203.256 234.288 203.112 234.021 202.823C233.541 202.282 233.577 201.434 234.11 200.947L241.441 194.253C241.566 195.317 241.708 196.382 241.851 197.446Z" fill="#084FC7"/>
<path d="M160.463 191.997C160.267 191.69 160.178 191.311 160.267 190.932C160.427 190.211 161.139 189.778 161.851 189.94L173.292 192.683C174.004 192.845 174.431 193.567 174.271 194.288C174.11 195.01 173.399 195.443 172.687 195.281L161.246 192.538C160.908 192.466 160.641 192.268 160.463 191.997Z" fill="#084FC7"/>
<path d="M119.626 214.768C119.27 214.768 118.914 214.623 118.647 214.335C118.167 213.793 118.203 212.945 118.736 212.458L127.473 204.483C128.007 203.996 128.843 204.032 129.324 204.573C129.804 205.115 129.768 205.963 129.235 206.45L120.498 214.425C120.249 214.659 119.946 214.768 119.626 214.768Z" fill="#084FC7"/>
<path d="M221.335 212.873C221.442 212.53 221.708 212.224 222.047 212.079C222.705 211.79 223.488 212.097 223.773 212.765L228.47 223.699C228.755 224.367 228.452 225.16 227.794 225.449C227.136 225.738 226.353 225.431 226.068 224.764L221.37 213.829C221.246 213.505 221.246 213.162 221.335 212.873Z" fill="#084FC7"/>
<path d="M243.417 230.664C243.203 231.313 242.954 231.909 242.669 232.468C242.563 232.685 242.456 232.901 242.349 233.1L235.961 231.061C235.641 230.952 235.392 230.736 235.232 230.465C235.054 230.159 234.983 229.762 235.107 229.401C235.321 228.697 236.068 228.318 236.744 228.535L243.417 230.664Z" fill="#084FC7"/>
<path d="M207.331 231.62C207.687 231.584 208.06 231.692 208.345 231.963C208.879 232.45 208.914 233.298 208.434 233.839L200.534 242.662C200.053 243.204 199.217 243.24 198.683 242.753C198.149 242.266 198.114 241.417 198.594 240.876L206.495 232.053C206.726 231.8 207.028 231.656 207.331 231.62Z" fill="#084FC7"/>
<path d="M202.687 211.267C202.331 211.213 202.011 210.997 201.797 210.672C201.406 210.058 201.601 209.228 202.206 208.831L212.171 202.498C212.776 202.101 213.594 202.3 213.986 202.913C214.377 203.527 214.182 204.357 213.577 204.754L203.612 211.087C203.327 211.267 202.989 211.321 202.687 211.267Z" fill="#084FC7"/>
<path d="M209.039 172.871C209.271 173.142 209.413 173.503 209.36 173.9C209.288 174.622 208.63 175.163 207.918 175.073L196.228 173.774C195.516 173.701 194.982 173.034 195.071 172.312C195.142 171.59 195.801 171.049 196.513 171.139L208.203 172.438C208.523 172.474 208.826 172.637 209.039 172.871Z" fill="#084FC7"/>
<path d="M192.046 147.16C192.135 146.799 192.367 146.492 192.705 146.312C193.345 145.969 194.146 146.204 194.484 146.853L200.054 157.354C200.392 158.004 200.16 158.816 199.52 159.159C198.879 159.501 198.078 159.267 197.74 158.617L192.171 148.116C191.993 147.809 191.957 147.467 192.046 147.16Z" fill="#084FC7"/>
<path d="M231.78 245.982C231.032 246.65 230.321 247.245 229.662 247.787L228.132 243.817C228.007 243.492 228.007 243.168 228.132 242.861C228.257 242.518 228.523 242.229 228.879 242.085C229.555 241.814 230.321 242.157 230.588 242.843L231.78 245.982Z" fill="#084FC7"/>
<path d="M124.306 225.774C124.128 225.449 124.092 225.07 124.235 224.692C124.484 224.006 125.231 223.645 125.907 223.898L136.975 227.939C137.651 228.192 138.007 228.95 137.758 229.635C137.509 230.321 136.762 230.682 136.085 230.429L125.018 226.388C124.697 226.297 124.448 226.063 124.306 225.774Z" fill="#084FC7"/>
<path d="M129.715 240.948C130.071 240.948 130.427 241.111 130.694 241.399C131.175 241.941 131.121 242.789 130.587 243.276L121.779 251.179C121.246 251.666 120.409 251.612 119.929 251.07C119.449 250.529 119.502 249.681 120.036 249.194L128.844 241.291C129.093 241.057 129.413 240.948 129.715 240.948Z" fill="#084FC7"/>
<path d="M145.676 253.488C145.89 253.777 146.014 254.156 145.943 254.535C145.819 255.257 145.142 255.744 144.431 255.617L132.847 253.615C132.135 253.488 131.655 252.803 131.779 252.081C131.904 251.359 132.58 250.872 133.292 250.998L144.876 253.001C145.196 253.055 145.481 253.236 145.676 253.488Z" fill="#084FC7"/>
<path d="M155.374 141.873C155.285 141.53 155.32 141.133 155.534 140.809C155.925 140.195 156.744 140.015 157.349 140.412L167.224 146.871C167.829 147.268 168.007 148.098 167.616 148.712C167.224 149.325 166.406 149.506 165.801 149.109L155.925 142.649C155.64 142.451 155.445 142.18 155.374 141.873Z" fill="#084FC7"/>
<path d="M222.776 149.487C223.096 149.307 223.47 149.271 223.843 149.397C224.52 149.65 224.876 150.408 224.644 151.093L220.712 162.334C220.463 163.02 219.715 163.381 219.039 163.146C218.363 162.893 218.007 162.136 218.239 161.45L222.171 150.209C222.278 149.902 222.509 149.65 222.776 149.487Z" fill="#084FC7"/>
<path d="M217.491 134.854L211.424 142.757C210.979 143.335 210.16 143.443 209.591 142.992C209.022 142.541 208.915 141.711 209.36 141.134L214.911 133.916C215.801 134.205 216.673 134.53 217.491 134.854Z" fill="#084FC7"/>
<path d="M158.114 243.889C158.239 244.268 158.559 244.539 158.915 244.611C159.093 244.647 159.288 244.647 159.466 244.575C159.662 244.503 178.683 238.26 198.684 246.668C208.844 250.944 217.883 252.568 225.196 252.424C225.232 251.991 225.267 251.594 225.303 251.197C225.303 251.143 225.321 251.089 225.321 251.052C225.321 251.052 225.73 250.782 226.442 250.277C219.253 250.638 210.054 249.086 199.502 244.665C178.737 235.932 159.591 242.247 158.79 242.518C158.239 242.717 157.936 243.33 158.114 243.889Z" fill="#084FC7"/>
<path d="M203.861 130.308C201.352 134.241 196.192 138.698 185.729 137.94C171.299 136.875 161.797 122.91 158.487 117.172C158.932 117.154 159.181 117.154 159.181 117.154L203.861 130.308Z" fill="#084FC7"/>
<path d="M188.523 156.218C188.95 156.308 189.377 156.362 189.804 156.398C193.79 156.723 197.029 155.55 199.413 152.916C206.353 145.229 203.506 127.691 203.381 126.952C203.274 126.356 202.723 125.959 202.153 126.067C201.566 126.176 201.175 126.735 201.281 127.312C201.317 127.493 204.075 144.544 197.847 151.454C195.908 153.601 193.328 154.522 190 154.251C176.014 153.114 160.338 117.082 160.178 116.721C159.947 116.18 159.306 115.927 158.772 116.162C158.239 116.396 157.989 117.046 158.221 117.587C158.826 119.085 173.701 153.168 188.523 156.218Z" fill="white"/>
<path d="M232.082 142.054C231.157 152.447 233.683 169.606 240.303 181.947C240.142 179.295 240.071 176.606 240.107 173.936C240.107 173.846 240.107 173.756 240.107 173.665C240.107 173.395 240.125 173.124 240.125 172.853C240.356 157.102 241.868 149.109 232.082 142.054Z" fill="#EA9B7A"/>
<path d="M149.857 160.349C144.733 180.413 125.978 196.508 113.167 191.492C113.007 190.373 112.864 189.237 112.704 188.118C112.598 187.378 112.491 186.656 112.366 185.917C111.548 180.468 110.587 175 109.501 169.696C104.751 146.564 108.096 122.296 131.21 119.427C132.882 119.211 134.537 119.031 136.156 118.85C147.704 123.848 155.765 137.254 149.857 160.349Z" fill="#EA9B7A"/>
<path d="M152.491 145.049L182.527 256.447L171.815 243.925C175.783 246.054 180.374 247.715 185.463 248.869C190.534 250.024 196.085 250.692 201.868 250.998C207.669 251.305 213.701 251.251 219.876 250.998C226.05 250.746 232.367 250.277 238.772 249.717H238.808C248.256 248.905 256.566 255.996 257.367 265.577C258.132 274.707 251.744 282.808 242.954 284.252C236.353 285.316 229.627 286.327 222.74 287.139C215.854 287.951 208.79 288.546 201.459 288.727C194.146 288.889 186.566 288.618 178.737 287.464C170.925 286.309 162.811 284.252 154.875 280.77C149.804 278.55 146.192 274.328 144.555 269.402L144.181 268.248L108.132 158.689C104.075 146.384 110.64 133.068 122.776 128.954C134.911 124.84 148.043 131.498 152.1 143.804C152.26 144.201 152.384 144.67 152.491 145.049Z" fill="#EA9B7A"/>
<path d="M165.943 252.893C165.64 252.893 165.338 252.731 165.178 252.442C164.929 252.009 165.089 251.468 165.516 251.215C165.8 251.053 172.366 247.3 179.235 246.758C179.733 246.722 180.16 247.083 180.196 247.588C180.231 248.094 179.875 248.527 179.377 248.563C172.918 249.068 166.459 252.749 166.405 252.785C166.245 252.857 166.085 252.893 165.943 252.893Z" fill="#D96C63"/>
<path d="M176.868 248.869C176.708 248.869 176.548 248.833 176.406 248.743C172.26 246.199 167.242 245.802 167.189 245.802C166.69 245.766 166.335 245.333 166.37 244.846C166.406 244.34 166.815 243.98 167.313 244.016C167.527 244.034 172.811 244.431 177.313 247.209C177.74 247.462 177.865 248.021 177.616 248.454C177.456 248.707 177.153 248.869 176.868 248.869Z" fill="#D96C63"/>
<path d="M203.648 190.157C216.94 192.881 222.758 178.952 222.812 178.808C223.043 178.248 222.776 177.617 222.224 177.4C221.673 177.166 221.05 177.436 220.836 177.996C220.623 178.519 215.605 190.41 204.075 188.046C191.957 185.556 169.359 161.396 169.146 161.143C168.737 160.71 168.061 160.692 167.633 161.107C167.206 161.522 167.189 162.208 167.598 162.641C168.523 163.633 190.89 187.523 203.648 190.157Z" fill="#084FC7"/>
<path d="M182.758 102.413C182.758 102.413 161.424 98.3352 155.409 76.5029C149.68 55.7172 154.093 44.9274 160.054 33.7045C164.538 25.2422 178.772 13.8209 198.719 17.9167C218.861 22.0486 233.933 32.5497 236.157 49.3479C240.303 80.7792 215.303 119.121 182.758 102.413Z" fill="#39393B"/>
<path d="M156.406 79.8768C156.014 79.8768 155.64 79.6784 155.445 79.2995C155.053 78.6138 146.085 62.2487 153.541 40.7051C158.203 27.2449 167.367 21.2365 174.253 18.5481C181.69 15.6431 187.936 15.9318 188.203 15.9318C188.808 15.9679 189.288 16.4911 189.253 17.1227C189.217 17.7361 188.719 18.2233 188.096 18.1872C188.043 18.1872 181.975 17.9346 174.964 20.6772C165.641 24.3399 159.146 31.3227 155.64 41.4449C148.541 61.978 157.295 78.0184 157.384 78.1808C157.687 78.7221 157.509 79.4077 156.975 79.7145C156.779 79.8227 156.601 79.8768 156.406 79.8768Z" fill="#FAAF3A"/>
<path d="M224.129 80.2199C224.129 80.2199 231.068 74.6626 232.901 82.0242C234.734 89.3859 229.573 102.467 221.495 98.4977L224.129 80.2199Z" fill="#D96C63"/>
<path d="M217.349 93.7523C213.897 94.907 210.855 98.0105 210.072 101.854C208.933 107.591 212.598 113.185 218.239 114.358C223.897 115.512 229.413 111.795 230.57 106.076C231.424 101.781 229.591 97.5594 226.228 95.2318C225.107 94.4379 223.808 93.8786 222.385 93.5899C222.349 93.5899 222.314 93.5718 222.278 93.5718C222.082 94.2936 222.154 94.8709 222.563 95.322C223.702 95.6288 224.734 96.152 225.641 96.8377C228.257 98.8585 229.662 102.269 228.969 105.751C228.008 110.587 223.328 113.726 218.559 112.752C213.791 111.777 210.694 107.032 211.655 102.196C212.367 98.6781 214.929 96.1881 218.15 95.3942L217.349 93.7523Z" fill="#FAAF3A"/>
<path d="M203.096 111.777L200.196 130.218C200.196 130.218 186.584 144.309 161.726 119.031C168.399 113.997 170.943 102.305 170.16 94.7628C170.16 94.7628 172.118 95.9536 175.142 98.7323C175.73 99.2736 176.495 99.6886 177.224 100.212C183.79 104.723 193.861 110.623 203.096 111.777Z" fill="#EA9B7A"/>
<path d="M203.096 111.777L201.726 120.51C194.271 117.136 181.086 109.937 175.143 98.7142C175.783 99.1833 176.495 99.6705 177.224 100.194C183.79 104.723 193.862 110.623 203.096 111.777Z" fill="#39393B"/>
<path d="M230.854 75.7814C230.463 77.73 230.107 79.5885 229.733 81.3567C229.342 83.2693 228.968 85.0736 228.595 86.7697C225.837 99.5262 223.577 106.365 219.911 108.927C201.353 121.864 171.157 95.6649 170.178 94.8169C170.16 94.7989 170.16 94.7989 170.16 94.7989C170.143 93.3013 170.143 91.8037 170.16 90.3422C170.392 77.9285 172.473 66.7778 175.783 56.4751C177.438 45.2162 186.05 36.1946 197.135 34.4986C208.63 32.7484 217.278 39.4965 222.687 42.4736C230.854 46.9844 234.057 59.5245 230.854 75.7814Z" fill="#EA9B7A"/>
<path d="M176.423 44.8913C176.423 44.8913 189.413 19.5587 215.32 26.6317C241.228 33.7046 242.598 45.9018 243.061 52.0004C243.523 58.099 229.644 47.2911 229.644 47.2911C229.644 47.2911 229.164 59.4883 224.537 55.7353C218.861 51.1163 212.527 41.1745 212.527 41.1745C212.527 41.1745 197.1 56.5472 182.438 52.3973C174.092 50.0517 176.423 44.8913 176.423 44.8913Z" fill="#39393B"/>
<path d="M208.239 100.627C204.876 100.627 202.562 98.2632 202.456 98.1369C202.1 97.758 202.1 97.1626 202.473 96.8017C202.847 96.4408 203.416 96.4408 203.772 96.8197C203.897 96.946 206.566 99.6345 210.089 98.4075C210.57 98.2452 211.103 98.4978 211.263 98.9849C211.424 99.4721 211.175 100.013 210.694 100.176C209.84 100.501 209.021 100.627 208.239 100.627Z" fill="#D96C63"/>
<path d="M200.498 85.2902C200.498 85.2902 212.989 89.0431 219.466 89.0431C219.466 89.0431 216.228 98.4256 206.975 95.1418C199.769 92.5796 200.498 85.2902 200.498 85.2902Z" fill="white"/>
<path d="M223.683 58.911C223.683 58.911 220.445 58.5682 220.961 61.7619C221.495 64.9555 228.523 63.0068 232.011 69.3941C232.011 69.3941 235.374 62.7001 223.683 58.911Z" fill="#39393B"/>
<path d="M209.253 55.9517C209.253 55.9517 212.367 56.926 210.659 59.6506C208.951 62.3751 203.221 57.8101 197.563 62.3209C197.563 62.3209 197.047 54.833 209.253 55.9517Z" fill="#39393B"/>
<path d="M203.63 78.8125C203.328 80.3101 200.036 80.9055 196.246 80.1296C192.474 79.3538 189.662 77.5134 189.965 75.9978C190.267 74.5002 193.559 73.9048 197.349 74.6806C201.121 75.4565 203.933 77.3149 203.63 78.8125Z" fill="#D96C63"/>
<path d="M240.498 79.8049L230.409 78.0547C230.356 78.4878 230.249 78.9208 230.16 79.3358C230.142 79.408 230.124 79.4802 230.089 79.5523L240.249 81.3025C240.658 81.3747 241.05 81.086 241.121 80.671C241.192 80.2741 240.925 79.8771 240.498 79.8049Z" fill="white"/>
<path d="M213.559 71.0719C213.559 70.5486 213.541 70.0254 213.47 69.5202C213.132 66.7415 211.922 64.1794 210.071 62.1946C208.363 60.3723 206.139 59.0371 203.559 58.4597C203.523 58.4417 203.47 58.4416 203.434 58.4236C197.527 57.1967 191.708 60.3362 189.306 65.677C189.092 66.1461 188.914 66.6152 188.754 67.1024C188.612 67.5354 188.505 67.9865 188.398 68.4376C187.722 71.7936 188.381 75.1135 190.035 77.82C190.605 78.7402 191.281 79.5883 192.046 80.328C193.719 81.97 195.836 83.1608 198.274 83.666C202.384 84.5321 206.423 83.2691 209.324 80.6348C211.281 78.8665 212.722 76.4487 213.292 73.6521C213.292 73.634 213.292 73.634 213.292 73.616C213.47 72.7679 213.559 71.9199 213.559 71.0719ZM198.594 82.1684C198.523 82.1504 198.47 82.1504 198.416 82.1323C195.231 81.4106 192.651 79.3537 191.139 76.6653C189.84 74.3377 189.324 71.559 189.893 68.7443C190.018 68.1669 190.178 67.6076 190.374 67.0663C190.391 67.0302 190.409 66.9941 190.409 66.958C191.993 62.7901 195.854 59.9573 200.196 59.7047C201.157 59.6506 202.135 59.7047 203.132 59.9212C205.267 60.3723 207.117 61.4007 208.594 62.8261C211.299 65.4424 212.651 69.3758 211.851 73.3453C210.569 79.48 204.644 83.4495 198.594 82.1684Z" fill="white"/>
<path d="M236.174 65.8034C235.836 65.6229 235.48 65.4605 235.107 65.2981C234.68 65.1177 234.235 64.9734 233.79 64.829C233.47 64.7388 233.167 64.6486 232.829 64.5945C232.224 64.4682 231.637 64.396 231.05 64.3599C230.338 64.3058 229.626 64.3238 228.932 64.414C226.993 64.6306 225.16 65.2801 223.541 66.3086C221.762 67.4273 220.249 68.997 219.217 70.8915C218.932 71.3787 218.701 71.8839 218.488 72.3891C218.47 72.4252 218.47 72.4433 218.452 72.4793C218.185 73.165 217.972 73.8867 217.811 74.6265C216.797 79.6064 218.772 84.5141 222.491 87.4371C223.701 88.3934 225.089 89.1332 226.619 89.5843C226.851 89.6565 227.082 89.7286 227.331 89.7647C227.456 89.8008 227.562 89.8188 227.687 89.8549C228.915 90.1075 230.142 90.1797 231.335 90.0715C231.53 90.0534 231.726 90.0354 231.904 90.0173C232.42 89.9452 232.936 89.8549 233.452 89.7106C234.395 89.458 235.32 89.0971 236.174 88.646C239.431 86.9139 241.922 83.7744 242.722 79.841C243.879 74.0672 241.05 68.4016 236.174 65.8034ZM241.228 79.5162C241.174 79.7688 241.121 80.0034 241.05 80.2379C240.961 80.5807 240.854 80.9055 240.73 81.2483C239.84 83.6481 238.203 85.5967 236.139 86.8778C235.392 87.3469 234.573 87.7258 233.719 88.0145C233.185 88.195 232.651 88.3213 232.082 88.4115C231.922 88.4476 231.762 88.4656 231.601 88.4836C230.427 88.628 229.199 88.5919 227.972 88.3393C227.865 88.3213 227.74 88.2852 227.633 88.2671C227.562 88.2491 227.491 88.2311 227.438 88.213C225.641 87.7439 224.039 86.8417 222.74 85.6328C222.545 85.4524 222.367 85.2719 222.189 85.0915C219.715 82.4933 218.505 78.7223 219.27 74.9152C219.448 74.0671 219.715 73.2372 220.053 72.4793C221.174 69.9894 223.132 68.0588 225.498 66.922C226.957 66.2184 228.577 65.8394 230.249 65.8394C230.516 65.8394 230.783 65.8575 231.068 65.8755C231.548 65.9116 232.029 65.9838 232.509 66.074C232.865 66.1462 233.203 66.2364 233.541 66.3447C234.004 66.489 234.448 66.6694 234.893 66.8679C235.231 67.0303 235.569 67.2107 235.908 67.3912C239.947 69.7909 242.224 74.6084 241.228 79.5162Z" fill="white"/>
<path d="M173.221 68.0044C173.132 67.9864 173.043 67.9503 172.971 67.8962C172.616 67.6616 172.527 67.1925 172.74 66.8497C177.794 58.8385 189.947 66.0378 190.053 66.1099C190.409 66.3264 190.534 66.7956 190.32 67.1564C190.107 67.5173 189.644 67.6436 189.288 67.4271C189.181 67.3549 178.274 60.9135 174.004 67.6797C173.843 67.9323 173.523 68.0586 173.221 68.0044Z" fill="white"/>
<path d="M219.022 72.8223C218.826 72.7862 218.666 72.6599 218.541 72.4975C216.922 69.9714 213.47 71.1081 213.435 71.1081C213.043 71.2344 212.616 71.0179 212.492 70.621C212.367 70.224 212.58 69.791 212.972 69.6647C214.556 69.1234 218.025 68.8528 219.823 71.6675C220.054 72.0284 219.947 72.4975 219.591 72.714C219.413 72.8222 219.218 72.8584 219.022 72.8223Z" fill="white"/>
<g opacity="0.8">
<g opacity="0.8">
<g opacity="0.8">
<g opacity="0.8">
<g opacity="0.8">
<g opacity="0.8">
<g opacity="0.8">
<path opacity="0.8" d="M229.734 81.3566C229.342 83.2692 228.968 85.0735 228.595 86.7695C225.161 85.9215 222.687 84.2074 222.972 82.782C223.274 81.3746 226.228 80.7612 229.734 81.3566Z" fill="#D96C63"/>
</g>
</g>
</g>
</g>
</g>
</g>
</g>
<path d="M206.281 71.2524C205.872 73.3273 204.609 74.8069 203.47 74.5723C202.331 74.3378 201.744 72.4793 202.153 70.4043C202.562 68.3294 203.826 66.8498 204.965 67.0844C206.103 67.3189 206.691 69.1774 206.281 71.2524Z" fill="#39393B"/>
<path d="M226.459 75.4024C226.05 77.4773 224.787 78.9569 223.648 78.7223C222.509 78.4878 221.922 76.6293 222.331 74.5543C222.741 72.4794 224.004 70.9998 225.143 71.2344C226.282 71.469 226.869 73.3274 226.459 75.4024Z" fill="#39393B"/>
<path d="M216.032 80.9594C217.011 81.1579 217.705 81.1218 217.758 81.1218C217.989 81.1037 218.221 80.9955 218.381 80.815C218.541 80.6346 218.594 80.382 218.577 80.1474L217.278 70.4943C217.206 70.0252 216.779 69.6824 216.317 69.7545C215.854 69.8267 215.516 70.2598 215.587 70.7289L216.744 79.3355C215.89 79.2092 214.609 78.8483 213.452 77.874C213.096 77.5672 212.545 77.6214 212.242 77.9823C211.94 78.3431 211.993 78.9025 212.349 79.2092C213.612 80.2557 214.982 80.7429 216.032 80.9594Z" fill="#39393B"/>
<path d="M178.506 87.7801C178.363 87.9966 174.413 93.7524 170.196 94.7989C170.178 94.7808 170.178 94.7809 170.178 94.7809C170.143 93.2833 170.16 91.7857 170.178 90.3242C170.321 90.3422 174.342 90.4505 178.506 87.7801Z" fill="#39393B"/>
<path d="M177.634 72.6597C177.634 72.6597 171.691 59.8851 163.986 67.3731C157.634 73.5619 163.185 94.2033 174.217 89.7827L177.634 72.6597Z" fill="#EA9B7A"/>
<path d="M163.025 83.6841C159.573 84.8389 156.53 87.9423 155.747 91.7855C154.609 97.5233 158.274 103.117 163.915 104.289C169.573 105.444 175.089 101.727 176.246 96.0076C177.1 91.7134 175.267 87.4913 171.904 85.1637C170.783 84.3698 169.484 83.8104 168.061 83.5218C168.025 83.5218 167.989 83.5037 167.954 83.5037C167.758 84.2255 167.847 84.8028 168.239 85.2539C169.377 85.5606 170.409 86.0839 171.317 86.7695C173.933 88.7904 175.338 92.2005 174.644 95.6829C173.683 100.518 169.004 103.658 164.235 102.684C159.466 101.709 156.37 96.9639 157.331 92.1284C158.025 88.6099 160.605 86.12 163.826 85.3261L163.025 83.6841Z" fill="#FAAF3A"/>
<path d="M173.754 86.2284C173.79 86.2284 173.808 86.2464 173.843 86.2464C174.306 86.2825 174.733 85.9397 174.769 85.4525C175.641 75.7994 168.452 70.9097 168.149 70.7112C167.758 70.4406 167.224 70.5669 166.957 70.9639C166.69 71.3608 166.815 71.9021 167.206 72.1728C167.473 72.3532 173.843 76.7196 173.061 85.3082C173.043 85.7412 173.345 86.1382 173.754 86.2284Z" fill="#39393B"/>
<path d="M166.958 79.4621C167.136 79.4982 167.349 79.4802 167.527 79.3719C168.381 78.9208 170.89 77.9104 172.26 78.578C172.687 78.7945 173.203 78.6141 173.399 78.1811C173.612 77.748 173.434 77.2248 173.007 77.0263C170.623 75.8535 167.136 77.6398 166.744 77.8382C166.317 78.0548 166.157 78.578 166.388 79.011C166.495 79.2456 166.726 79.408 166.958 79.4621Z" fill="#39393B"/>
<path d="M185.285 50.9899C185.285 50.9899 177.296 72.9846 176.869 77.4232C176.281 83.4677 168.399 62.7541 176.317 45.0718L185.285 50.9899Z" fill="#39393B"/>
<path d="M318.773 517.298H285.872C285.872 517.298 278.257 480.273 275.712 459.524C273.15 438.756 271.833 389.552 271.833 389.552C271.833 389.552 245.623 398.195 190.747 394.929C69.1635 387.73 115.267 297.153 115.267 297.153C119.377 302.909 150.196 310.83 167.384 313.59C220.178 318.733 260.303 327.826 287.776 339.843C294.395 342.73 300.267 345.797 305.427 349.027C312.047 353.159 316.193 365.735 318.702 382.245C326.193 431.881 318.773 517.298 318.773 517.298Z" fill="#39393B"/>
<path d="M289.947 499.471C289.395 499.471 288.915 499.074 288.79 498.515C284.039 474.698 282.456 445.053 281.175 421.236C280.107 401.479 279.111 382.822 276.602 380.585C274.573 378.763 266.157 380.188 255.516 381.974C234.324 385.547 202.295 390.924 166.993 382.606C147.758 378.059 133.612 368.586 124.964 354.44C110.035 330.046 116.85 299.788 116.921 299.481C117.064 298.831 117.704 298.434 118.345 298.597C118.986 298.741 119.377 299.391 119.217 300.04C119.146 300.329 112.58 329.649 126.993 353.195C135.302 366.782 148.95 375.894 167.544 380.278C202.402 388.506 234.146 383.165 255.16 379.629C267.74 377.518 275.338 376.236 278.203 378.799C281.299 381.577 282.171 395.218 283.559 421.11C284.84 444.855 286.424 474.391 291.139 498.046C291.264 498.696 290.854 499.327 290.214 499.453C290.107 499.453 290.036 499.471 289.947 499.471Z" fill="#585859"/>
<path d="M319.395 500.085H319.377L282.794 499.291C282.135 499.273 281.619 498.731 281.637 498.064C281.655 497.396 282.189 496.873 282.847 496.891L319.431 497.685C320.089 497.703 320.605 498.244 320.587 498.912C320.552 499.579 320.036 500.085 319.395 500.085Z" fill="#585859"/>
<path d="M317.866 560.042H294.645L290.179 532.418L287.723 517.298H316.567L317.029 532.418L317.866 560.042Z" fill="#EA9B7A"/>
<path d="M317.865 560.042H294.644L291.317 539.473L290.178 532.418H317.029L317.242 539.726L317.865 560.042Z" fill="#FAAF3A"/>
<path d="M317.242 539.726L291.317 539.473L290.178 532.418H317.029L317.242 539.726Z" fill="#C77E2E"/>
<path d="M375.161 597.229H287.331C286.673 596.02 286.317 594.324 286.175 592.285C285.623 584.743 287.99 572.727 289.146 565.148C289.289 564.264 289.413 563.434 289.502 562.695C289.662 561.432 289.769 560.367 289.769 559.591C289.769 553.402 295.161 554.467 295.161 554.467C304.04 563.308 314.111 550.064 319.983 554.395C319.983 554.395 320.214 554.575 320.766 554.99C321.264 555.387 322.011 556.001 323.043 556.885C324.538 558.148 326.638 559.988 329.485 562.586C336.46 568.956 348.31 573.142 358.399 577.418C359.68 577.959 360.873 578.5 361.994 579.06C362.83 579.475 363.631 579.89 364.378 580.287C372.634 584.798 375.25 589.128 375.855 592.267C376.442 595.281 375.161 597.229 375.161 597.229Z" fill="#0875F7"/>
<path d="M364.396 580.305C362.136 582.127 357.1 585.79 353.061 585.79C352.883 585.79 352.705 585.79 352.527 585.772C349.68 585.537 339.218 580.323 330.694 575.577C325.819 572.853 321.353 570.183 318.15 568.035C312.901 564.517 311.976 563.182 311.78 562.244C311.015 558.725 316.744 556.289 320.766 555.008C321.264 555.405 322.011 556.019 323.043 556.903C318.061 558.274 313.951 560.439 314.146 561.666C314.645 562.713 319.84 566.718 332.26 573.629C341.744 578.897 350.73 583.138 352.723 583.318C355.428 583.534 359.396 581.045 361.993 579.078C362.865 579.475 363.648 579.89 364.396 580.305Z" fill="#084FC7"/>
<path d="M375.161 597.229H287.331C286.673 596.02 286.317 594.324 286.175 592.285H375.873C376.442 595.281 375.161 597.229 375.161 597.229Z" fill="#084FC7"/>
<path d="M296.3 597.229H293.684C296.282 594.216 298.719 589.579 298.399 582.975C297.972 574.17 292.776 568.252 289.146 565.148C289.289 564.264 289.413 563.434 289.502 562.695C293.399 565.708 299.965 572.33 300.481 582.867C300.801 589.182 298.755 593.891 296.3 597.229Z" fill="#084FC7"/>
<path d="M328.026 567.855C327.385 567.855 326.78 567.404 326.62 566.736C326.424 565.942 326.905 565.149 327.67 564.95L333.15 563.561C333.933 563.362 334.716 563.85 334.912 564.625C335.107 565.419 334.627 566.213 333.862 566.412L328.381 567.801C328.257 567.837 328.132 567.855 328.026 567.855Z" fill="white"/>
<path d="M322.563 563.218C321.904 563.218 321.317 562.767 321.157 562.099C320.961 561.305 321.442 560.511 322.207 560.313L327.687 558.924C328.47 558.725 329.253 559.212 329.449 559.988C329.645 560.782 329.164 561.576 328.399 561.774L322.919 563.164C322.794 563.2 322.687 563.218 322.563 563.218Z" fill="white"/>
<path d="M333.506 571.085C332.866 571.085 332.261 570.634 332.1 569.966C331.905 569.172 332.385 568.378 333.15 568.198L338.631 566.809C339.414 566.61 340.196 567.097 340.392 567.873C340.588 568.667 340.108 569.461 339.342 569.659L333.862 571.049C333.737 571.067 333.613 571.085 333.506 571.085Z" fill="white"/>
<path d="M338.987 574.188C338.346 574.188 337.741 573.737 337.581 573.07C337.385 572.276 337.866 571.482 338.631 571.301L344.111 569.912C344.894 569.714 345.677 570.201 345.873 570.977C346.068 571.77 345.588 572.564 344.823 572.763L339.342 574.152C339.218 574.17 339.111 574.188 338.987 574.188Z" fill="white"/>
<path d="M344.965 577.057C344.325 577.057 343.72 576.606 343.559 575.938C343.364 575.144 343.844 574.35 344.609 574.17L350.09 572.781C350.873 572.582 351.656 573.069 351.851 573.845C352.047 574.639 351.567 575.433 350.801 575.632L345.321 577.021C345.196 577.057 345.09 577.057 344.965 577.057Z" fill="white"/>
<path d="M351.46 579.511C350.801 579.511 350.214 579.06 350.054 578.392C349.858 577.598 350.339 576.804 351.104 576.606L356.584 575.217C357.367 575.018 358.15 575.505 358.346 576.281C358.542 577.075 358.061 577.869 357.296 578.067L351.816 579.457C351.691 579.493 351.566 579.511 351.46 579.511Z" fill="white"/>
<path d="M439.948 295.818V303.216C439.948 307.474 437.421 310.92 434.289 310.92H40.2135C37.0819 310.92 34.5552 307.474 34.5552 303.216V295.818C34.5552 291.56 37.0819 288.113 40.2135 288.113H434.272C437.403 288.113 439.948 291.56 439.948 295.818Z" fill="#21B573"/>
<path d="M439.948 298.163H34.5552V301.555H439.948V298.163Z" fill="#217C58"/>
<path d="M428.097 329.919H57.6868C56.032 329.919 54.6797 328.548 54.6797 326.87V310.812H431.104V326.87C431.104 328.548 429.752 329.919 428.097 329.919Z" fill="#217C58"/>
<path d="M411.46 424.177H80.1958V437.276H411.46V424.177Z" fill="#217C58"/>
<path d="M56.3168 599.557L120.445 329.919H97.9183L33.79 599.557H56.3168Z" fill="#21B573"/>
<path d="M434.912 599.557L370.766 329.919H393.293L457.421 599.557H434.912Z" fill="#21B573"/>
<path d="M70.5194 226.145L63.5718 227.224L71.6025 280.392L78.5501 279.313L70.5194 226.145Z" fill="#FAAF3A"/>
<path d="M70.5333 226.117L63.5938 227.2L65.124 221.823L65.9069 219.026L67.4906 221.444L70.5333 226.117Z" fill="#EA9B7A"/>
<path d="M77.9599 275.443L71.0122 276.522L71.5968 280.392L78.5445 279.313L77.9599 275.443Z" fill="#39393B"/>
<path d="M78.5765 282.43L72.5444 283.368C72.2953 283.404 72.0462 283.224 72.0106 282.971L71.6191 280.355L78.5765 279.272L78.9679 281.889C79.0035 282.159 78.8256 282.394 78.5765 282.43Z" fill="#DF615C"/>
<path d="M67.4911 221.444L65.1245 221.823L65.9074 219.026L67.4911 221.444Z" fill="#39393B"/>
<path d="M77.5668 272.665L70.6191 273.744L71.0367 276.508L77.9844 275.429L77.5668 272.665Z" fill="#C77E2E"/>
<path d="M65.7118 229.545L71.6549 268.915C71.7083 269.222 71.9752 269.421 72.2599 269.366C72.5446 269.312 72.7581 269.042 72.7047 268.753L66.7616 229.383C66.7083 229.094 66.4414 228.878 66.1567 228.932C65.872 228.968 65.6584 229.256 65.7118 229.545Z" fill="#C77E2E"/>
<path d="M68.4345 229.13L74.3776 268.5C74.4309 268.789 74.6978 269.005 74.9825 268.951C75.285 268.897 75.4808 268.627 75.4274 268.338L69.4843 228.968C69.4309 228.679 69.164 228.462 68.8793 228.517C68.5946 228.553 68.3811 228.823 68.4345 229.13Z" fill="#C77E2E"/>
<path d="M83.1164 226.36L76.0879 226.383L76.2627 280.17L83.2912 280.147L83.1164 226.36Z" fill="#21B573"/>
<path d="M83.1139 226.369L76.0854 226.388L78.3808 221.299L79.573 218.647L80.783 221.281L83.1139 226.369Z" fill="#EA9B7A"/>
<path d="M83.2687 276.25L76.2402 276.273L76.253 280.188L83.2815 280.165L83.2687 276.25Z" fill="#39393B"/>
<path d="M82.829 283.26L76.7258 283.278C76.4589 283.278 76.2632 283.061 76.2632 282.809V280.174L83.2917 280.156V282.791C83.2917 283.043 83.0959 283.26 82.829 283.26Z" fill="#DF615C"/>
<path d="M80.783 221.281L78.3809 221.299L79.573 218.647L80.783 221.281Z" fill="#39393B"/>
<path d="M83.2526 273.435L76.2241 273.458L76.2332 276.255L83.2617 276.232L83.2526 273.435Z" fill="#217C58"/>
<path d="M77.8291 229.04L77.9537 268.861C77.9537 269.168 78.2028 269.403 78.4875 269.403C78.79 269.403 79.0213 269.15 79.0213 268.861L78.8967 229.04C78.8967 228.733 78.6476 228.499 78.3629 228.499C78.0782 228.481 77.8291 228.733 77.8291 229.04Z" fill="#217C58"/>
<path d="M80.5874 229.022L80.712 268.843C80.712 269.15 80.9611 269.384 81.2458 269.384C81.5483 269.384 81.7796 269.132 81.7796 268.843L81.655 229.022C81.655 228.715 81.4059 228.48 81.1212 228.48C80.8365 228.48 80.5874 228.715 80.5874 229.022Z" fill="#217C58"/>
<path d="M88.3011 226.093L80.8433 279.348L87.8022 280.35L95.26 227.095L88.3011 226.093Z" fill="#0875F7"/>
<path d="M95.2493 227.127L88.292 226.117L91.2813 221.408L92.8472 218.972L93.6657 221.751L95.2493 227.127Z" fill="#EA9B7A"/>
<path d="M88.3619 276.521L81.4028 275.52L80.8596 279.396L87.8187 280.398L88.3619 276.521Z" fill="#39393B"/>
<path d="M86.9041 283.386L80.8721 282.52C80.6229 282.484 80.445 282.249 80.4806 281.979L80.8543 279.362L87.8116 280.373L87.4379 282.989C87.3845 283.242 87.1532 283.422 86.9041 283.386Z" fill="#DF615C"/>
<path d="M93.6656 221.751L91.2812 221.408L92.8471 218.972L93.6656 221.751Z" fill="#39393B"/>
<path d="M81.7801 272.72L81.3921 275.489L88.351 276.492L88.7391 273.723L81.7801 272.72Z" fill="#084FC7"/>
<path d="M89.6442 228.986L84.1282 268.41C84.0926 268.717 84.2883 268.988 84.5908 269.024C84.8933 269.06 85.1602 268.861 85.1958 268.555L90.7118 229.13C90.7474 228.824 90.5517 228.553 90.2492 228.517C89.9645 228.481 89.6976 228.697 89.6442 228.986Z" fill="#084FC7"/>
<path d="M92.3844 229.383L86.8684 268.807C86.8328 269.114 87.0286 269.385 87.3311 269.421C87.6336 269.457 87.9005 269.258 87.936 268.952L93.4521 229.527C93.4877 229.221 93.2919 228.95 92.9894 228.914C92.6869 228.878 92.42 229.076 92.3844 229.383Z" fill="#084FC7"/>
<path d="M97.5447 247.642L97.171 250.529L96.8329 253.146L96.3347 257.115L95.9966 259.713L95.4984 263.719L95.1603 266.281L94.6443 270.323L94.324 272.849L93.808 276.926L93.4877 279.416L92.9717 283.53L92.6514 285.984L92.3845 288.113H64.7332L64.4663 285.984L64.146 283.53L63.63 279.416L63.3097 276.926L62.7937 272.849L62.4734 270.323L61.9574 266.281L61.6371 263.719L61.1211 259.713L60.8008 257.115L60.2848 253.146L59.9467 250.529L59.5908 247.642H97.5447Z" fill="#DF615C"/>
<path d="M97.1711 250.529L96.833 253.145H60.2848L59.9468 250.529H97.1711Z" fill="#B11722"/>
<path d="M96.3347 257.115L95.9966 259.713H61.1211L60.8008 257.115H96.3347Z" fill="#B11722"/>
<path d="M95.4985 263.719L95.1604 266.281H61.9575L61.6372 263.719H95.4985Z" fill="#B11722"/>
<path d="M94.6445 270.323L94.3243 272.849H62.7939L62.4736 270.323H94.6445Z" fill="#B11722"/>
<path d="M93.8079 276.926L93.4876 279.416H63.6299L63.3096 276.926H93.8079Z" fill="#B11722"/>
<path d="M92.9717 283.53L92.6514 285.984H64.4663L64.146 283.53H92.9717Z" fill="#B11722"/>
<path d="M437.652 145.121L414.075 246.235L413.453 248.888L411.869 255.69C411.175 258.649 408.595 260.724 405.606 260.724H246.762C242.598 260.724 239.537 256.791 240.498 252.695L266.281 142.108C266.975 139.167 269.555 137.092 272.545 137.092H431.371C435.534 137.092 438.595 141.026 437.652 145.121Z" fill="#39393B"/>
<path d="M414.058 246.217L413.453 248.887H248.523V246.217H414.058Z" fill="#585859"/>
<path d="M310.765 162.1C309.449 169.263 302.651 175.073 295.587 175.073C288.523 175.073 283.861 169.263 285.178 162.1C286.495 154.937 293.292 149.127 300.356 149.127C307.438 149.127 312.082 154.937 310.765 162.1Z" fill="#FAAF3A"/>
<path d="M296.317 159.628C296.05 161.053 295.338 162.226 294.733 162.226C294.111 162.226 293.826 161.071 294.093 159.628C294.36 158.202 295.071 157.03 295.676 157.03C296.299 157.03 296.584 158.184 296.317 159.628Z" fill="#39393B"/>
<path d="M302.99 159.628C302.723 161.053 302.011 162.226 301.406 162.226C300.801 162.226 300.499 161.071 300.766 159.628C301.032 158.202 301.744 157.03 302.349 157.03C302.972 157.03 303.257 158.184 302.99 159.628Z" fill="#39393B"/>
<path d="M296.922 168.433C291.424 168.433 291.192 162.858 291.192 162.803C291.175 162.497 291.424 162.19 291.744 162.136C292.064 162.064 292.313 162.262 292.331 162.569C292.331 162.767 292.545 167.314 297.153 167.314C301.744 167.314 303.63 162.767 303.719 162.569C303.844 162.262 304.182 162.082 304.466 162.136C304.751 162.208 304.893 162.497 304.769 162.803C304.715 162.84 302.42 168.433 296.922 168.433Z" fill="#39393B"/>
<path d="M384.2 222.689C384.342 229.401 395.552 237.809 395.552 237.809C395.552 237.809 408.577 229.401 410.161 222.689C411.869 215.417 403.684 213.18 397.616 218.665C392.723 213.18 384.04 215.417 384.2 222.689Z" fill="#DF615C"/>
<path d="M360.463 203.22C359.698 210.185 353.524 215.814 346.673 215.814C339.823 215.814 334.858 210.167 335.623 203.22C336.388 196.255 342.563 190.626 349.413 190.626C356.282 190.626 361.228 196.273 360.463 203.22Z" fill="#585859"/>
<path d="M278.844 137.092L251.388 260.724H246.762C242.598 260.724 239.537 256.79 240.498 252.695L266.281 142.108C266.975 139.167 269.555 137.074 272.545 137.074H278.844V137.092Z" fill="#585859"/>
<path d="M324.84 260.724L320.018 288.204H335.943L340.765 260.724H324.84Z" fill="white"/>
<path d="M296.21 283.476L299.466 278.839C300.623 277.179 302.509 276.205 304.52 276.205H348.15C350.463 276.205 352.58 277.504 353.648 279.579L355.837 283.837C356.869 285.822 355.445 288.222 353.221 288.222H298.612C296.21 288.204 294.822 285.443 296.21 283.476Z" fill="white"/>
<path d="M205.303 288.186H336.371L337.794 283.17C338.684 280.012 336.353 276.872 333.114 276.872H212.171C210 276.872 208.096 278.334 207.491 280.445L205.303 288.186Z" fill="white"/>
<path d="M377.154 104.073L319.182 104.037C316.94 104.037 315.107 102.178 315.107 99.905L315.125 63.7825C315.125 61.5091 316.958 59.6506 319.2 59.6506L377.172 59.6867C379.414 59.6867 381.246 61.5452 381.246 63.8186L381.229 99.9411C381.229 102.233 379.414 104.073 377.154 104.073Z" fill="#DF615C"/>
<path d="M373.702 97.415L368.417 117.659L359.182 98.6239L373.702 97.415Z" fill="#DF615C"/>
<path d="M362.83 78.5958C361.655 86.174 347.687 95.6647 347.687 95.6647C347.687 95.6647 334.253 86.1559 333.488 78.5597C332.652 70.332 342.26 67.824 348.292 74.0309C354.645 67.8421 364.111 70.3681 362.83 78.5958Z" fill="white"/>
</svg>
