<svg width="24" height="26" viewBox="0 0 24 26" fill="none" xmlns="http://www.w3.org/2000/svg">
<path d="M17.6125 16.7886C18.7935 15.0528 19.4999 12.9208 19.4999 10.6094C19.4999 4.82354 15.1259 0.115967 9.74993 0.115967C4.37398 0.115967 0 4.82354 0 10.6094C0 16.3953 4.37403 21.1029 9.74998 21.1029C11.8975 21.1029 13.8787 20.3425 15.4915 19.0715L21.8789 25.946L24 23.6631C24 23.6631 17.6125 16.7886 17.6125 16.7886ZM9.74998 17.8741C6.02781 17.8741 3.00001 14.6154 3.00001 10.6094C3.00001 6.60344 6.02781 3.34475 9.74998 3.34475C13.4721 3.34475 16.4999 6.60344 16.4999 10.6094C16.4999 14.6154 13.4721 17.8741 9.74998 17.8741Z" fill="#2E3B46"/>
</svg>
