<svg width="1806" height="807" viewBox="0 0 1806 807" fill="none" xmlns="http://www.w3.org/2000/svg">
<path d="M1150.69 743.969C1150.69 746.679 1148.52 748.881 1145.84 748.881C1143.17 748.881 1141 746.679 1141 743.969C1141 741.259 1143.17 739.057 1145.84 739.057C1148.52 739.057 1150.69 741.253 1150.69 743.969Z" stroke="#7183A6" stroke-opacity="0.3" stroke-width="2" stroke-miterlimit="10" stroke-linecap="round" stroke-linejoin="round"/>
<path d="M1197.68 786.566C1200.36 786.566 1202.52 784.367 1202.52 781.655C1202.52 778.942 1200.36 776.743 1197.68 776.743C1195.01 776.743 1192.84 778.942 1192.84 781.655C1192.84 784.367 1195.01 786.566 1197.68 786.566Z" stroke="#7183A6" stroke-opacity="0.3" stroke-width="2" stroke-miterlimit="10" stroke-linecap="round" stroke-linejoin="round"/>
<path d="M1179.44 771.557C1185.15 771.557 1189.77 766.867 1189.77 761.082C1189.77 755.297 1185.15 750.607 1179.44 750.607C1173.74 750.607 1169.11 755.297 1169.11 761.082C1169.11 766.867 1173.74 771.557 1179.44 771.557Z" stroke="#7183A6" stroke-opacity="0.3" stroke-width="2" stroke-miterlimit="10" stroke-linecap="round" stroke-linejoin="round"/>
<path d="M1197.44 761.082L1194 767.189L1192.17 773.987L1185.47 775.834L1179.44 779.333L1173.42 775.834L1166.71 773.987L1164.89 767.189L1161.44 761.082L1164.89 754.97L1166.71 748.172L1173.42 746.325L1179.44 742.825L1185.47 746.325L1192.17 748.172L1194 754.97L1197.44 761.082Z" stroke="#7183A6" stroke-opacity="0.3" stroke-width="2" stroke-miterlimit="10" stroke-linecap="round" stroke-linejoin="round"/>
<path d="M1192.84 781.655C1192.84 778.945 1195.01 776.743 1197.68 776.743C1199.12 776.743 1200.42 777.389 1201.31 778.407C1204.99 773.627 1207.2 767.618 1207.2 761.077C1207.2 745.53 1194.77 732.928 1179.44 732.928C1164.11 732.928 1151.68 745.53 1151.68 761.077C1151.68 776.623 1164.11 789.225 1179.44 789.225C1184.83 789.225 1189.85 787.664 1194.11 784.971C1193.33 784.096 1192.84 782.935 1192.84 781.655Z" stroke="#7183A6" stroke-opacity="0.3" stroke-width="2" stroke-miterlimit="10" stroke-linecap="round" stroke-linejoin="round"/>
<path d="M1179.44 722.991C1166.49 722.991 1155.07 729.64 1148.32 739.755C1149.73 740.613 1150.69 742.179 1150.69 743.975C1150.69 746.685 1148.52 748.886 1145.84 748.886C1145.18 748.886 1144.56 748.749 1143.99 748.509C1142.63 752.449 1141.89 756.674 1141.89 761.082C1141.89 782.118 1158.71 799.174 1179.45 799.174C1200.19 799.174 1217.01 782.118 1217.01 761.082C1217.01 740.047 1200.19 722.991 1179.44 722.991Z" stroke="#7183A6" stroke-opacity="0.3" stroke-width="2" stroke-miterlimit="10" stroke-linecap="round" stroke-linejoin="round"/>
<path d="M1376.84 111.763L1353.54 103.736C1351.07 102.89 1349.76 100.177 1350.59 97.6793C1351.43 95.182 1354.1 93.8487 1356.56 94.6947L1379.86 102.721C1382.33 103.567 1383.64 106.281 1382.81 108.772C1381.97 111.276 1379.3 112.616 1376.84 111.763Z" stroke="#7183A6" stroke-opacity="0.3" stroke-width="3" stroke-miterlimit="10"/>
<path d="M1373.78 120.913L1350.47 112.886C1348.01 112.04 1346.69 109.327 1347.53 106.836C1348.36 104.339 1351.04 103.005 1353.5 103.851L1376.81 111.871C1379.27 112.717 1380.59 115.431 1379.75 117.928C1378.91 120.426 1376.24 121.759 1373.78 120.913Z" stroke="#7183A6" stroke-opacity="0.3" stroke-width="3" stroke-miterlimit="10"/>
<path d="M1353.06 70.0129C1353.09 70.0941 1353.11 70.1686 1353.13 70.2498C1353.66 71.9349 1356.73 82.6144 1355.44 94.4646L1380.45 102.83C1386.37 92.5358 1395.11 85.8155 1396.52 84.7732C1396.58 84.7259 1396.65 84.6785 1396.71 84.6312C1397.39 84.1371 1398.05 83.6092 1398.69 83.0475C1402.46 79.7516 1405.42 75.4135 1407.09 70.2836C1412.01 55.1781 1403.92 38.8882 1389.02 33.9004C1374.12 28.9126 1358.06 37.1151 1353.14 52.2206C1351.47 57.3573 1351.3 62.6293 1352.39 67.5495C1352.58 68.3751 1352.8 69.2008 1353.06 70.0129Z" stroke="#7183A6" stroke-opacity="0.3" stroke-width="3" stroke-miterlimit="10"/>
<path d="M1351.75 113.441C1351.47 118.45 1354.51 123.221 1359.44 124.872C1364.29 126.496 1369.47 124.567 1372.22 120.487L1351.75 113.441Z" stroke="#7183A6" stroke-opacity="0.3" stroke-width="3" stroke-miterlimit="10"/>
<path d="M1363.27 96.9484L1370.7 74.1209C1371.44 71.874 1370.23 69.4511 1368.01 68.7067C1365.8 67.9623 1363.41 69.1872 1362.67 71.4341C1361.94 73.681 1363.15 76.1038 1365.36 76.8483L1374.28 79.8328" stroke="#7183A6" stroke-opacity="0.3" stroke-width="3" stroke-miterlimit="10"/>
<path d="M1373.07 100.231L1380.5 77.4032C1381.23 75.1563 1383.62 73.9381 1385.84 74.6758C1388.05 75.4202 1389.26 77.8431 1388.53 80.09C1387.79 82.3368 1385.4 83.555 1383.19 82.8174L1374.27 79.8328" stroke="#7183A6" stroke-opacity="0.3" stroke-width="3" stroke-miterlimit="10"/>
<path d="M1412.37 78.1477L1419.9 80.672" stroke="#7183A6" stroke-opacity="0.3" stroke-width="3" stroke-miterlimit="10" stroke-linecap="round"/>
<path d="M1415.82 68.5309L1423.66 67.333" stroke="#7183A6" stroke-opacity="0.3" stroke-width="3" stroke-miterlimit="10" stroke-linecap="round"/>
<path d="M1407.1 86.3977L1412.69 92.0961" stroke="#7183A6" stroke-opacity="0.3" stroke-width="3" stroke-miterlimit="10" stroke-linecap="round"/>
<path d="M1342.44 54.7449L1334.91 52.2273" stroke="#7183A6" stroke-opacity="0.3" stroke-width="3" stroke-miterlimit="10" stroke-linecap="round"/>
<path d="M1345.32 44.9318L1339.73 39.2334" stroke="#7183A6" stroke-opacity="0.3" stroke-width="3" stroke-miterlimit="10" stroke-linecap="round"/>
<path d="M1341.84 64.5513L1334 65.7491" stroke="#7183A6" stroke-opacity="0.3" stroke-width="3" stroke-miterlimit="10" stroke-linecap="round"/>
<path d="M1051.99 137.471L982.788 116.509C977.755 114.986 974.898 109.614 976.4 104.51L990.221 57.5762C991.723 52.4724 997.02 49.5754 1002.05 51.0983L1071.26 72.0609C1076.29 73.5838 1079.15 78.9553 1077.65 84.0592L1063.83 130.993C1062.32 136.091 1057.02 138.994 1051.99 137.471Z" stroke="#7183A6" stroke-opacity="0.3" stroke-width="4" stroke-miterlimit="10" stroke-linecap="round"/>
<path d="M978.031 98.9602L1065.46 125.443" stroke="#7183A6" stroke-opacity="0.3" stroke-width="4" stroke-miterlimit="10" stroke-linecap="round"/>
<path d="M1021.96 119.893C1021.58 121.166 1020.26 121.892 1019 121.511C1017.75 121.131 1017.03 119.786 1017.41 118.513C1017.78 117.24 1019.11 116.515 1020.36 116.895C1021.62 117.276 1022.33 118.62 1021.96 119.893Z" fill="#4D2C5E" fill-opacity="0.5"/>
<path d="M1017.88 118.654C1018.16 117.705 1019.1 117.148 1020.03 117.328L1020.22 117.374C1021.14 117.655 1021.7 118.607 1021.52 119.562L1021.48 119.752C1021.2 120.701 1020.26 121.259 1019.33 121.079L1019.15 121.033C1018.22 120.752 1017.66 119.8 1017.84 118.846L1017.88 118.654Z" stroke="#7183A6" stroke-opacity="0.3"/>
<path d="M1027.2 129.968L1007.6 124.031L1004.96 132.997L1024.56 138.934L1027.2 129.968Z" stroke="#7183A6" stroke-opacity="0.3" stroke-width="4" stroke-miterlimit="10" stroke-linecap="round"/>
<path d="M997.689 131.309L1031.53 141.558" stroke="#7183A6" stroke-opacity="0.3" stroke-width="4" stroke-miterlimit="10" stroke-linecap="round"/>
<path d="M1728.72 117.249C1750.41 117.249 1768 108.796 1768 98.3683C1768 87.941 1750.41 79.488 1728.72 79.488C1707.03 79.488 1689.44 87.941 1689.44 98.3683C1689.44 108.796 1707.03 117.249 1728.72 117.249Z" stroke="#7183A6" stroke-opacity="0.3" stroke-width="3" stroke-miterlimit="10" stroke-linecap="round" stroke-linejoin="round"/>
<path d="M1744.6 108.21C1755.89 89.4213 1757.91 69.7946 1749.13 64.3724C1740.35 58.9502 1724.08 69.7858 1712.8 88.5742C1701.52 107.363 1699.49 126.989 1708.28 132.412C1717.06 137.834 1733.32 126.998 1744.6 108.21Z" stroke="#7183A6" stroke-opacity="0.3" stroke-width="3" stroke-miterlimit="10" stroke-linecap="round" stroke-linejoin="round"/>
<path d="M1749.12 132.403C1757.9 126.981 1755.88 107.354 1744.6 88.5657C1733.32 69.7772 1717.05 58.9417 1708.27 64.3639C1699.49 69.7861 1701.51 89.4127 1712.79 108.201C1724.07 126.99 1740.34 137.825 1749.12 132.403Z" stroke="#7183A6" stroke-opacity="0.3" stroke-width="3" stroke-miterlimit="10" stroke-linecap="round" stroke-linejoin="round"/>
<path d="M1728.72 103.366C1731.44 103.366 1733.65 101.129 1733.65 98.3683C1733.65 95.608 1731.44 93.3704 1728.72 93.3704C1726 93.3704 1723.79 95.608 1723.79 98.3683C1723.79 101.129 1726 103.366 1728.72 103.366Z" stroke="#7183A6" stroke-opacity="0.3" stroke-width="3" stroke-miterlimit="10" stroke-linecap="round" stroke-linejoin="round"/>
<path d="M1752.29 774.343L1719.86 781.936L1718.4 775.525C1718.06 774.039 1718.97 772.56 1720.43 772.213L1747.57 765.859C1749.03 765.519 1750.49 766.439 1750.83 767.925L1752.29 774.343Z" stroke="#7183A6" stroke-opacity="0.3" stroke-width="3" stroke-miterlimit="10" stroke-linecap="round"/>
<path d="M1741.63 739.867C1755.93 728.179 1758.17 706.951 1746.64 692.454C1735.12 677.957 1714.18 675.681 1699.89 687.37C1685.59 699.058 1683.34 720.286 1694.87 734.783C1706.4 749.28 1727.33 751.556 1741.63 739.867Z" stroke="#7183A6" stroke-opacity="0.3" stroke-width="3" stroke-miterlimit="10"/>
<path d="M1736.23 743.449L1705.22 683.798L1701.35 676.559C1681.13 687.364 1673.39 712.739 1684.04 733.238C1694.7 753.738 1719.72 761.592 1739.94 750.787L1736.15 743.499" stroke="#7183A6" stroke-opacity="0.3" stroke-width="3" stroke-miterlimit="10" stroke-linecap="round" stroke-linejoin="round"/>
<path d="M1712.06 696.869C1722.21 691.441 1728.91 684.106 1727.03 680.487C1725.15 676.867 1715.39 678.333 1705.24 683.761C1695.09 689.189 1688.38 696.524 1690.27 700.143C1692.15 703.763 1701.9 702.297 1712.06 696.869Z" stroke="#7183A6" stroke-opacity="0.3" stroke-width="3" stroke-miterlimit="10"/>
<path d="M1714.44 746.725C1721.61 748.126 1729.28 747.171 1736.23 743.449C1743.19 739.727 1748.31 733.854 1751.22 727.068C1744.05 725.667 1736.38 726.622 1729.42 730.344C1722.46 734.066 1717.35 739.939 1714.44 746.725Z" stroke="#7183A6" stroke-opacity="0.3" stroke-width="3" stroke-miterlimit="10"/>
<path d="M1736.26 743.413C1744.38 739.071 1744.02 722.198 1735.45 705.725C1726.89 689.252 1713.36 679.418 1705.24 683.76C1697.12 688.102 1697.48 704.975 1706.05 721.447C1714.61 737.92 1728.14 747.754 1736.26 743.413Z" stroke="#7183A6" stroke-opacity="0.3" stroke-width="3" stroke-miterlimit="10"/>
<path d="M1691.31 729.347L1750.14 697.901" stroke="#7183A6" stroke-opacity="0.3" stroke-width="3" stroke-miterlimit="10"/>
<path d="M1730.39 754.459L1733.82 768.979" stroke="#7183A6" stroke-opacity="0.3" stroke-width="3" stroke-miterlimit="10"/>
<path d="M1715.96 783.287L1757.31 773.232" stroke="#7183A6" stroke-opacity="0.3" stroke-width="3" stroke-miterlimit="10" stroke-linecap="round"/>
<path d="M1781.73 433.004L1799.03 415.456L1751.08 366.834L1733.78 384.381L1781.73 433.004Z" stroke="#7183A6" stroke-opacity="0.3" stroke-width="3" stroke-miterlimit="10" stroke-linecap="round" stroke-linejoin="round"/>
<path d="M1803.71 437.751L1799.03 415.453L1781.72 433.001L1803.71 437.751Z" stroke="#7183A6" stroke-opacity="0.3" stroke-width="3" stroke-miterlimit="10" stroke-linecap="round" stroke-linejoin="round"/>
<path d="M1801.53 427.347L1793.45 435.534" stroke="#7183A6" stroke-opacity="0.3" stroke-width="3" stroke-miterlimit="10" stroke-linecap="round" stroke-linejoin="round"/>
<path d="M1728.68 371.003L1737.88 361.673C1740.12 359.403 1743.75 359.403 1745.98 361.673L1751.07 366.833L1733.77 384.381L1728.68 379.221C1726.44 376.951 1726.44 373.266 1728.68 371.003Z" stroke="#7183A6" stroke-opacity="0.3" stroke-width="3" stroke-miterlimit="10" stroke-linecap="round" stroke-linejoin="round"/>
<path d="M1755.75 371.567L1738.44 389.123" stroke="#7183A6" stroke-opacity="0.3" stroke-width="3" stroke-miterlimit="10" stroke-linecap="round" stroke-linejoin="round"/>
<path d="M1790.38 424.227L1747.1 380.349" stroke="#7183A6" stroke-opacity="0.3" stroke-width="3" stroke-miterlimit="10" stroke-linecap="round" stroke-linejoin="round"/>
<path d="M524.031 721.172L520.839 728.533" stroke="#7183A6" stroke-opacity="0.3" stroke-width="4" stroke-miterlimit="10" stroke-linecap="round" stroke-linejoin="round"/>
<path d="M547.148 731.455L543.956 738.817" stroke="#7183A6" stroke-opacity="0.3" stroke-width="4" stroke-miterlimit="10" stroke-linecap="round" stroke-linejoin="round"/>
<path d="M570.273 741.734L567.081 749.095" stroke="#7183A6" stroke-opacity="0.3" stroke-width="4" stroke-miterlimit="10" stroke-linecap="round" stroke-linejoin="round"/>
<path d="M508.556 714.291L506.96 717.978" stroke="#7183A6" stroke-opacity="0.3" stroke-width="4" stroke-miterlimit="10" stroke-linecap="round" stroke-linejoin="round"/>
<path d="M516.292 717.738L514.697 721.412" stroke="#7183A6" stroke-opacity="0.3" stroke-width="4" stroke-miterlimit="10" stroke-linecap="round" stroke-linejoin="round"/>
<path d="M531.72 724.591L530.123 728.277" stroke="#7183A6" stroke-opacity="0.3" stroke-width="4" stroke-miterlimit="10" stroke-linecap="round" stroke-linejoin="round"/>
<path d="M539.45 728.03L537.86 731.711" stroke="#7183A6" stroke-opacity="0.3" stroke-width="4" stroke-miterlimit="10" stroke-linecap="round" stroke-linejoin="round"/>
<path d="M554.883 734.89L553.287 738.576" stroke="#7183A6" stroke-opacity="0.3" stroke-width="4" stroke-miterlimit="10" stroke-linecap="round" stroke-linejoin="round"/>
<path d="M578.382 745.34L576.791 749.022" stroke="#7183A6" stroke-opacity="0.3" stroke-width="4" stroke-miterlimit="10" stroke-linecap="round" stroke-linejoin="round"/>
<path d="M562.614 738.329L561.024 742.011" stroke="#7183A6" stroke-opacity="0.3" stroke-width="4" stroke-miterlimit="10" stroke-linecap="round" stroke-linejoin="round"/>
<path d="M565.211 804.204L488.935 705.621L588.743 749.895L565.211 804.204Z" stroke="#7183A6" stroke-opacity="0.3" stroke-width="4" stroke-miterlimit="10" stroke-linecap="round" stroke-linejoin="round"/>
<path d="M561.362 773.074L540.496 746.105L567.796 758.211L561.362 773.074Z" stroke="#7183A6" stroke-opacity="0.3" stroke-width="4" stroke-miterlimit="10" stroke-linecap="round" stroke-linejoin="round"/>
<path d="M633.774 2.01965L605 16.127L662.351 136.405L691.124 122.298L633.774 2.01965Z" stroke="#7183A6" stroke-opacity="0.3" stroke-width="4" stroke-miterlimit="10" stroke-linecap="round" stroke-linejoin="round"/>
<path d="M640.64 16.4526L626.26 23.5001" stroke="#7183A6" stroke-opacity="0.3" stroke-width="4" stroke-miterlimit="10" stroke-linecap="round" stroke-linejoin="round"/>
<path d="M653.93 44.3181L639.54 51.3757" stroke="#7183A6" stroke-opacity="0.3" stroke-width="4" stroke-miterlimit="10" stroke-linecap="round" stroke-linejoin="round"/>
<path d="M667.22 72.1836L652.83 79.2412" stroke="#7183A6" stroke-opacity="0.3" stroke-width="4" stroke-miterlimit="10" stroke-linecap="round" stroke-linejoin="round"/>
<path d="M680.5 100.059L666.12 107.107" stroke="#7183A6" stroke-opacity="0.3" stroke-width="4" stroke-miterlimit="10" stroke-linecap="round" stroke-linejoin="round"/>
<path d="M645.04 25.6804L637.85 29.1991" stroke="#7183A6" stroke-opacity="0.3" stroke-width="4" stroke-miterlimit="10" stroke-linecap="round" stroke-linejoin="round"/>
<path d="M649.48 34.9993L642.29 38.5281" stroke="#7183A6" stroke-opacity="0.3" stroke-width="4" stroke-miterlimit="10" stroke-linecap="round" stroke-linejoin="round"/>
<path d="M658.35 53.5964L651.16 57.1151" stroke="#7183A6" stroke-opacity="0.3" stroke-width="4" stroke-miterlimit="10" stroke-linecap="round" stroke-linejoin="round"/>
<path d="M662.79 62.9153L655.6 66.4441" stroke="#7183A6" stroke-opacity="0.3" stroke-width="4" stroke-miterlimit="10" stroke-linecap="round" stroke-linejoin="round"/>
<path d="M671.66 81.5125L664.47 85.0311" stroke="#7183A6" stroke-opacity="0.3" stroke-width="4" stroke-miterlimit="10" stroke-linecap="round" stroke-linejoin="round"/>
<path d="M676.11 90.8315L668.91 94.3603" stroke="#7183A6" stroke-opacity="0.3" stroke-width="4" stroke-miterlimit="10" stroke-linecap="round" stroke-linejoin="round"/>
<path d="M40.0008 663.803L8.77077 678.679C7.10077 679.48 5.11082 678.75 4.32082 677.056L2.32082 672.736C1.53082 671.043 2.2508 669.025 3.9208 668.224L35.1508 653.348C36.8208 652.547 38.8108 653.277 39.6008 654.971L41.6008 659.29C42.3908 660.994 41.6708 663.012 40.0008 663.803Z" stroke="#7183A6" stroke-opacity="0.3" stroke-width="4" stroke-miterlimit="10" stroke-linecap="round"/>
<path d="M52.1309 697.59L36.851 665.324L12.1309 677.36L27.4109 709.627L37.0509 763.613C40.2209 770.316 48.1509 773.135 54.7509 769.921L81.4409 756.921C88.0509 753.706 90.8309 745.665 87.6609 738.973L52.1309 697.59Z" stroke="#7183A6" stroke-opacity="0.3" stroke-width="4" stroke-miterlimit="10" stroke-linecap="round"/>
<path d="M31.751 733.973C31.751 733.973 36.851 725.598 50.411 726.074C63.971 726.551 66.251 714.028 66.251 714.028" stroke="#7183A6" stroke-opacity="0.3" stroke-width="4" stroke-miterlimit="10" stroke-linecap="round"/>
<path d="M83.48 141.914C95.3431 141.914 104.96 132.162 104.96 120.133C104.96 108.104 95.3431 98.3518 83.48 98.3518C71.617 98.3518 62 108.104 62 120.133C62 132.162 71.617 141.914 83.48 141.914Z" stroke="#7183A6" stroke-opacity="0.3" stroke-width="4" stroke-miterlimit="10" stroke-linecap="round" stroke-linejoin="round"/>
<path d="M113.59 163.432C118.334 163.432 122.18 159.532 122.18 154.721C122.18 149.911 118.334 146.011 113.59 146.011C108.846 146.011 105 149.911 105 154.721C105 159.532 108.846 163.432 113.59 163.432Z" stroke="#7183A6" stroke-opacity="0.3" stroke-width="4" stroke-miterlimit="10" stroke-linecap="round" stroke-linejoin="round"/>
</svg>
